<svg xmlns="http://www.w3.org/2000/svg" width="373.982" height="274.361" viewBox="0 0 373.982 274.361"><defs><style>.a{fill:#fff;}.b{fill:#211715;}.c{fill:#7abee6;}.d{fill:#85807f;}.e{fill:#3d8dcc;}.f{fill:#febe69;}</style></defs><path class="a" d="M134,84.984a3.116,3.116,0,0,0-1.828-1.673,59.337,59.337,0,0,0-7.487-1.661c-1.026-.166-3.305-.043-4.411,1.068l-5.993,2.392a.479.479,0,0,1,.006.114c-.069,1.85-.227,4.922-.324,7.35a1.257,1.257,0,0,1-.052.311l5.866-.217c.4,1.346,2.428,2.159,4.834,1.951a3.969,3.969,0,0,0,2.8-2.562,5.9,5.9,0,0,0-.127-4.346c1.824.066,2.827.052,4.993-.012a1.812,1.812,0,0,0,1.886-1.569A2.317,2.317,0,0,0,134,84.984Z"/><path class="a" d="M158.209,271.753l1.06.612,209.716-121.08L211.7,60.475,1.983,181.555Q80.1,226.653,158.209,271.753Z"/><path class="b" d="M157.2,273.48l1.059.612a2.027,2.027,0,0,0,2.019,0l55.073-31.8,93.922-54.226,60.721-35.057a2.019,2.019,0,0,0,0-3.454L247.589,78.888l-34.882-20.14a2.027,2.027,0,0,0-2.019,0l-81.979,47.331L47.047,153.227.973,179.828a2.019,2.019,0,0,0,0,3.453l121.933,70.4,34.294,19.8c2.233,1.289,4.25-2.166,2.019-3.454l-121.933-70.4-34.294-19.8v3.453l81.98-47.33L166.633,88.8l46.074-26.6h-2.019l122.405,70.671,34.882,20.139v-3.454L262.55,210.426l-79.779,46.06-24.512,14.152h2.019l-1.059-.612C156.985,268.736,154.969,272.192,157.2,273.48Z"/><path class="c" d="M166.409,139.294l19.315,11.152a1.118,1.118,0,0,1,0,2.117l-7.256,4.189a4.05,4.05,0,0,1-3.667,0L155.486,145.6a1.117,1.117,0,0,1,0-2.117l7.256-4.19A4.057,4.057,0,0,1,166.409,139.294Z"/><path class="c" d="M211.956,69.922l23.028,13.3a.948.948,0,0,1,0,1.8l-8.822,5.093a3.434,3.434,0,0,1-3.112,0l-23.029-13.3a.949.949,0,0,1,0-1.8l8.822-5.093A3.436,3.436,0,0,1,211.956,69.922Z"/><path class="b" d="M129.085,111.111l58.231,33.62,16.065,9.275v-3.454L176.61,166.008h2.019l-58.025-33.5-16.271-9.394c-2.233-1.289-4.25,2.166-2.019,3.454l58.005,33.489,16.291,9.406a2.027,2.027,0,0,0,2.019,0L205.4,154.006a2.019,2.019,0,0,0,0-3.454l-58.232-33.62L131.1,107.657c-2.233-1.289-4.25,2.166-2.019,3.454Z"/><path class="b" d="M285.673,141.94q19.893,11.47,39.773,22.962l10.963,6.334c2.233,1.29,4.25-2.165,2.019-3.454q-20.365-11.765-40.733-23.525l-10-5.771c-2.234-1.288-4.251,2.167-2.019,3.454Z"/><path class="b" d="M227.436,143.218l23.373-13.494c2.229-1.287.217-4.745-2.019-3.454l-23.373,13.494c-2.228,1.287-.216,4.745,2.019,3.454Z"/><path class="b" d="M147.277,98.775l23.87,13.781,33.513,19.349,37,21.364,34.4,19.859,25.3,14.606,2.2,1.27c2.233,1.289,4.25-2.166,2.019-3.454l-23.871-13.782L248.194,152.42l-37-21.365-34.4-19.859L151.5,96.591l-2.2-1.27c-2.234-1.29-4.25,2.166-2.019,3.454Z"/><path class="b" d="M255.877,160.3q15.908-9.18,31.815-18.36c2.228-1.287.216-4.744-2.019-3.454q-15.908,9.182-31.815,18.36c-2.229,1.287-.217,4.745,2.019,3.454Z"/><path class="b" d="M249.1,82.79,200.929,110.6l-11.958,6.9c-2.229,1.287-.217,4.744,2.019,3.454l48.171-27.812,11.958-6.9c2.229-1.287.217-4.745-2.019-3.454Z"/><path class="b" d="M318.1,170.322l-7.617,4.4-4.165,2.405a2.674,2.674,0,0,1-2.875.176c-.781-.431-1.547-.893-2.319-1.339-.4-.232-1.265-.985-1.737-1-.022,0-.076-.078-.094-.072v.647q-.255.9.084.58c.015,0,.028-.023.042-.024.1-.008.26-.15.345-.2l1.55-.895,9.474-5.469c1.085-.627,2.01-1.08,3.246-.392.866.483,1.719.992,2.577,1.488.394.227.792.448,1.181.682a1.359,1.359,0,0,0,.271.156c.547.163.5-1.447.037-1.139-2.129,1.424-.129,4.891,2.019,3.454,1.963-1.313,2.5-3.83.474-5.409a18.951,18.951,0,0,0-2.22-1.346c-2.3-1.33-4.383-2.741-7.21-2.073a15.8,15.8,0,0,0-3.908,2l-5.974,3.449c-1.287.743-2.608,1.447-3.869,2.233-1.445.9-2.4,2.593-1.532,4.252a5.65,5.65,0,0,0,2.484,2.107c1.967,1.136,4,2.7,6.364,2.693,1.918-.005,3.353-.955,4.932-1.866l10.459-6.039C322.343,172.489,320.331,169.032,318.1,170.322Z"/><path class="b" d="M298.834,172.968,293.689,170c-.779-.45-1.562-.9-2.338-1.351-.9-.528-1.871-1.381-1.933-2.125a1.845,1.845,0,0,1,.587-1.346A5.964,5.964,0,0,1,292,163.84a12.679,12.679,0,0,1,5.576-.918,11.288,11.288,0,0,1,5.088,1.325c.558.313,1.108.64,1.661.96l5.959,3.44c2.233,1.289,4.25-2.166,2.019-3.454l-5.881-3.4c-.741-.427-1.472-.887-2.237-1.271a16.1,16.1,0,0,0-6.927-1.613c-4.185-.076-9.893,1.324-11.522,5.717a5.66,5.66,0,0,0,1.443,5.839,12.75,12.75,0,0,0,2.98,2.109l6.658,3.844c2.234,1.289,4.25-2.166,2.019-3.454Z"/><path class="b" d="M210.946,71.649l20.278,11.707,2.026,1.17a2.937,2.937,0,0,0,.558.322c.335.093-.026.291-.108-.2V83.584c.079-.477.448-.3.112-.2a2.456,2.456,0,0,0-.452.261l-1.929,1.114-4.479,2.586c-.746.43-1.795,1.355-2.73,1.094a6.174,6.174,0,0,1-1.3-.712l-16.736-9.662-3.7-2.137c-.36-.208-.715-.439-1.086-.627-.529-.268-.153-.27-.095.084v1.063c-.055.333-.455.364.083.091.376-.191.737-.426,1.1-.637l3.378-1.95,3.053-1.762c.6-.349,1.284-.9,2.025-.538,2.309,1.113,4.34-2.335,2.019-3.454a6.035,6.035,0,0,0-6,.5l-4.6,2.659c-1.111.642-2.267,1.238-3.346,1.932-2.185,1.407-2.02,4,.121,5.329,5.422,3.366,11.081,6.4,16.608,9.588,2.061,1.191,4.1,2.457,6.2,3.579,3.449,1.841,6.533-.7,9.424-2.369,1.422-.821,2.859-1.62,4.267-2.464A4.326,4.326,0,0,0,237.2,85.6a2.979,2.979,0,0,0-1.2-4.115c-1.721-1.108-3.567-2.059-5.338-3.082L212.965,68.195C210.732,66.905,208.715,70.36,210.946,71.649Z"/><path class="b" d="M165.4,141.021l11.486,6.632,6.555,3.784c.3.176.9.7,1.262.729.418.036.416-1.36-.008-1.318-.079.008-.183.119-.257.148a11.437,11.437,0,0,0-1.417.818l-3.774,2.179a7.882,7.882,0,0,1-2.253,1.179c-1.356.239-3.045-1.222-4.12-1.842L158.4,144.97c-.312-.179-1.452-1.108-1.821-1.051-.261.04-.079-1.708-.079.623,0,1.348-.163.593.2.556.379-.039.993-.574,1.318-.761l4.316-2.492c.917-.529,1.957-1.38,3.074-.824,2.3,1.145,4.326-2.3,2.019-3.453a6.252,6.252,0,0,0-6.01.187c-1.288.722-2.557,1.476-3.835,2.214-1.019.588-2.07,1.141-3.064,1.769a3.158,3.158,0,0,0-.02,5.6c4.431,2.852,9.179,5.3,13.742,7.934,1.823,1.053,3.623,2.177,5.482,3.165a6.147,6.147,0,0,0,5.772.041c.979-.512,1.922-1.11,2.878-1.662,2.271-1.311,8.185-3.635,5.456-7.143a6.469,6.469,0,0,0-2.038-1.5l-3-1.735-15.359-8.867C165.185,136.278,163.168,139.733,165.4,141.021Z"/><path class="b" d="M130.736,121.009l9.365,5.406,2.441,1.41c.213.123,1.007.769,1.26.727.024,0,.167-1.346-.028-1.371-.155-.02-.6.346-.732.423l-2.808,1.621-2.877,1.661a3.857,3.857,0,0,1-1.506.683c-1.172.112-2.548-1.085-3.488-1.628l-6.017-3.474-2.656-1.533a11.78,11.78,0,0,0-1.655-.956c-.054-.02-.107-.085-.164-.095-.488-.08.062,1.4-.035,1.407a2.106,2.106,0,0,0,.546-.315l2.954-1.7,3.182-1.838c.689-.4,1.394-.834,2.218-.423,2.3,1.145,4.326-2.3,2.019-3.454a6.013,6.013,0,0,0-5.588.038c-.79.421-1.555.9-2.33,1.346l-3.455,1.994a12.686,12.686,0,0,0-2.26,1.416c-1.695,1.548-1.051,3.858.719,4.982.477.3.982.567,1.47.849l6.594,3.806c1.639.947,3.258,1.95,4.926,2.845a5.944,5.944,0,0,0,4.853.39,15.929,15.929,0,0,0,2.324-1.246c1.923-1.11,3.906-2.155,5.785-3.34,1.8-1.134,2.463-3.419.758-5a8.776,8.776,0,0,0-1.625-1.049l-12.171-7.027C130.522,116.265,128.505,119.721,130.736,121.009Z"/><path class="b" d="M365.168,149.226c4.5-2.647,8.9-6.948,8.813-12.555-.087-5.506-4.374-9.586-8.813-12.2a2.02,2.02,0,0,0-2.019,0L344.7,135.123c-2.229,1.287-.217,4.745,2.019,3.454l18.445-10.65h-2.019c3.146,1.851,6.773,4.734,6.832,8.744.06,4.144-3.577,7.184-6.832,9.1-2.216,1.306-.206,4.765,2.019,3.454Z"/><path class="b" d="M183.852,78.816l39.057,22.549c2.233,1.29,4.25-2.165,2.019-3.453l-39.057-22.55c-2.233-1.289-4.25,2.166-2.019,3.454Z"/><path class="a" d="M293.714,120.683a12.09,12.09,0,0,1-6.873-3.346c-3.615.541-7.648.7-10.2-.554-1.311,1.169-4.174,3.7-4.826,4.9a4.79,4.79,0,0,0-.329,4.278,4.645,4.645,0,0,0,3.243,2.342,10.691,10.691,0,0,0,4.113-.088,27.555,27.555,0,0,0,5.982-1.717l.576-.232a2.916,2.916,0,0,0-.086.327,6.264,6.264,0,0,0,.188,2.887,4.4,4.4,0,0,0,2.685,2.529,8.453,8.453,0,0,0,4.7.163,25.348,25.348,0,0,0,6.641-2.524,7.75,7.75,0,0,0,3.55-2.8,5.762,5.762,0,0,0,.691-4.321,6.45,6.45,0,0,0-1.09-2.386,11.1,11.1,0,0,1-2.165.463A28.8,28.8,0,0,1,293.714,120.683Z"/><path class="b" d="M275.544,115.078c-1.061.959-2.136,1.9-3.158,2.9a10.449,10.449,0,0,0-2.924,4.147,6.09,6.09,0,0,0,1.562,6.47,8.512,8.512,0,0,0,6.731,1.777,29.723,29.723,0,0,0,7.6-1.951,2.062,2.062,0,0,0,1.4-2.46,2.013,2.013,0,0,0-2.46-1.4,25.174,25.174,0,0,1-6.9,1.847,8.465,8.465,0,0,1-1.942,0c.13.021-.357-.085-.379-.091-.073-.019-.76-.26-.458-.129a5.5,5.5,0,0,1-.693-.384c-.194-.136-.216-.15-.065-.044-.1-.085-.193-.175-.284-.269-.153-.178-.173-.193-.058-.046a3.527,3.527,0,0,1-.207-.331q-.156-.306-.049-.087a3.7,3.7,0,0,1-.113-.4q-.072-.364-.015-.089c-.008-.14-.01-.281,0-.421q.033-.37-.009-.1c.024-.141.052-.28.087-.419a2.581,2.581,0,0,1,.44-1.077c.074-.118.405-.5.029-.063.088-.1.173-.211.262-.314.275-.316.565-.619.859-.917,1.145-1.161,2.374-2.234,3.582-3.327a2,2,0,0,0-2.828-2.828Z"/><path class="b" d="M286.341,121.37a8.3,8.3,0,0,0-2.941,7.99c.571,2.987,3.5,4.767,6.346,5.025,3.257.3,6.535-.97,9.418-2.339,2.923-1.388,5.694-2.96,6.529-6.345.763-3.089-.5-7.232-3.678-8.434a2.017,2.017,0,0,0-2.46,1.4,2.044,2.044,0,0,0,1.4,2.46c-.364-.137.049.1.164.244.015.02.21.343.248.412a4.093,4.093,0,0,1,.477,1.278,3.888,3.888,0,0,1-.663,3.071,8.053,8.053,0,0,1-2.962,1.942A27.08,27.08,0,0,1,294,129.84a11.053,11.053,0,0,1-3.954.568,3.569,3.569,0,0,1-2.393-1.114,2.307,2.307,0,0,1-.4-1,6.074,6.074,0,0,1-.03-.648c0-.1.065-.786.015-.526a5.194,5.194,0,0,1,1.927-2.925,2.017,2.017,0,0,0,0-2.828,2.041,2.041,0,0,0-2.828,0Z"/><path class="d" d="M292.835,79.5q-.543.037-1.1.068a136.869,136.869,0,0,1-17.471-.451c.008.2.01.311.01.311.184,9,1.092,29.476,1.5,36.829,2.425,1.822,7.01,1.689,11.067,1.082,4.167,3.964,8.759,3.738,13.674,3.266a8.922,8.922,0,0,0,3.458-1.053c.123-9.827.014-31.99-.591-41.621A70.678,70.678,0,0,1,292.835,79.5Z"/><path class="a" d="M278.325,33.92c-4.027,2.416-7.743,5.1-10.271,8.668a34.661,34.661,0,0,0-5.687,12.4c-.536,2.539-.776,5.354.288,7.657a9.182,9.182,0,0,0,2.948,3.408c1.649,1.239,3.7,2.17,5.55,1.1.513,4.461.131,7.876.428,11.746a153.523,153.523,0,0,0,20.155.667,68.827,68.827,0,0,0,10.557-1.4,3.543,3.543,0,0,0,2.826-3.465V60.981c4.7-4.1,6.348-9.926,4.537-15.115a20.859,20.859,0,0,0-2.335-4.949,16.4,16.4,0,0,0-2.652-2.968,19.229,19.229,0,0,0-6.9-3.612Z"/><path class="a" d="M304.678,22.113a15,15,0,0,0-5.434-16.845C292.216.275,282.283.962,276.508,7.531c-5.739,6.53-5.638,17.271.089,23.752a15.691,15.691,0,0,0,22.5,1.186"/><path class="a" d="M304.742,12.9a14.687,14.687,0,0,0-5.5-7.635C292.216.275,282.283.962,276.508,7.531a17.138,17.138,0,0,0-3.794,7.593,30.2,30.2,0,0,0,12.774-1.452.85.85,0,0,1,.68.059c.5.28-.1,1.368-.385,1.865,1.757.5,6.038-.3,7.974-1.344,1.072,2.673,2.16,4.049,4.28,5.041l6.641,2.82A15.059,15.059,0,0,0,304.742,12.9Z"/><path class="b" d="M285.9,81.181c0,12.45-.009,24.9.141,37.351.031,2.572,4.031,2.579,4,0-.15-12.449-.141-24.9-.141-37.351,0-2.574-4-2.578-4,0Z"/><path class="b" d="M272.275,79.426c.135,6.463.408,12.924.681,19.383q.214,5.115.456,10.23.1,2.117.205,4.231a12.584,12.584,0,0,0,.329,3.755c.781,1.941,4.191,2.432,5.976,2.617a30.194,30.194,0,0,0,7.443-.375,2.013,2.013,0,0,0,1.4-2.46,2.052,2.052,0,0,0-2.46-1.4c-2.962.429-6.915.951-9.519-.882l.991,1.727c-.675-12.263-1.243-24.551-1.5-36.829-.054-2.571-4.054-2.579-4,0Z"/><path class="b" d="M288.578,121.081a16.4,16.4,0,0,0,7.152,1.767,25.406,25.406,0,0,0,6.859-.6,6.758,6.758,0,0,0,2.6-1.126c.907-.75.792-1.8.8-2.859q.024-2.41.028-4.822.03-11.788-.2-23.577c-.082-3.807-.18-7.617-.4-11.42-.147-2.559-4.148-2.576-4,0,.635,11.02.613,22.1.607,33.132,0,2.658-.012,5.317-.045,7.975l.991-1.727c-1.624,1-3.667.936-5.52,1.009a13.467,13.467,0,0,1-6.847-1.2c-2.285-1.176-4.311,2.274-2.019,3.454Z"/><path class="b" d="M297.237,36.265a14.72,14.72,0,0,1,9.855,8.433,12.271,12.271,0,0,1-1.261,12.642,2.017,2.017,0,0,0,.718,2.737,2.044,2.044,0,0,0,2.736-.718,16.324,16.324,0,0,0,3.032-8.045,16.99,16.99,0,0,0-1.622-8.285A18.66,18.66,0,0,0,298.3,32.408c-2.486-.678-3.548,3.179-1.063,3.857Z"/><path class="b" d="M277.316,32.193a37.563,37.563,0,0,0-9.706,7.72,36.293,36.293,0,0,0-6.275,11.333c-1.323,3.85-2.251,8.578-.407,12.411,1.676,3.485,6.107,6.776,10.089,5.725,2.487-.655,1.432-4.515-1.063-3.857-1.389.367-2.815-.7-3.8-1.587A6.184,6.184,0,0,1,264,60.206c-.513-3.272.691-6.968,1.979-9.928a29.888,29.888,0,0,1,5.392-8.58,36.924,36.924,0,0,1,7.968-6.051c2.2-1.329.193-4.789-2.019-3.454Z"/><path class="b" d="M269.34,69.276c.184,3.206.016,6.42.241,9.623a2.061,2.061,0,0,0,2,2c8.637.7,17.325,1.28,25.948.105,3.821-.521,9-.884,9.538-5.708a47.739,47.739,0,0,0,.052-5.256V63.891c0-2.574-4-2.578-4,0,0,3.468-.036,6.939,0,10.407a1.8,1.8,0,0,1-.632,1.646,6.145,6.145,0,0,1-2.364.615c-1.039.194-2.081.37-3.128.515a80.429,80.429,0,0,1-13.073.576c-4.123-.1-8.232-.42-12.341-.751l2,2c-.225-3.2-.057-6.417-.241-9.623-.147-2.559-4.148-2.576-4,0Z"/><path class="b" d="M306.607,22.644a17.12,17.12,0,0,0-5.566-18.509,19.574,19.574,0,0,0-19.126-2.784,18.949,18.949,0,0,0-11.522,15.634,19.93,19.93,0,0,0,7.844,18.435,17.973,17.973,0,0,0,22.276-1.537c1.887-1.759-.946-4.583-2.829-2.829a13.956,13.956,0,0,1-15.5,2.1c-5.2-2.69-8-8.35-7.926-14.08A15.22,15.22,0,0,1,281.6,5.917a15.452,15.452,0,0,1,15.127.12,13.152,13.152,0,0,1,6.019,15.544c-.786,2.458,3.074,3.51,3.857,1.063Z"/><path class="b" d="M303.005,24.433c.448.031-.355-.108.045,0,.141.039.283.067.423.111.092.03.183.063.274.1l-.211-.083c.086-.014.3.159.384.211s.164.105.243.161l-.172-.135a1.374,1.374,0,0,1,.326.3,1.546,1.546,0,0,1,.294.326c-.211-.43-.042-.034.023.074a1.21,1.21,0,0,1,.206.388c-.1-.254-.117-.276-.04-.068l.043.141a1.339,1.339,0,0,1,.1.435c.056-.482-.021-.064-.018.079s-.011.308-.016.463c-.014.449.1-.318-.018.083-.042.151-.07.3-.116.456-.016.055-.226.609-.116.355s-.111.213-.139.265q-.114.211-.243.413c-.032.049-.332.465-.168.255s-.165.183-.2.225c-.108.116-.22.228-.338.336-.041.038-.426.35-.229.2s-.231.154-.279.186c-.144.093-.289.182-.438.266s-.3.165-.456.242c-.054.026-.537.233-.314.147s-.274.095-.329.114c-.165.056-.33.107-.5.154-.334.093-.669.151-1.007.223-.15.024-.112.02.111-.012-.083.01-.167.018-.251.024-.193.017-.387.025-.581.03a2,2,0,0,0,0,4c3.967-.1,7.918-2.26,9.262-6.138a6.285,6.285,0,0,0-.587-5.468,6.421,6.421,0,0,0-4.964-2.858,2.01,2.01,0,0,0-2,2,2.048,2.048,0,0,0,2,2Z"/><path class="b" d="M282.687,21.927a2.5,2.5,0,0,1-1.019,1.881,1.946,1.946,0,0,1-1.43.271,2.179,2.179,0,0,1-1.574-1.186,2.551,2.551,0,0,1,.63-2.934,2.019,2.019,0,0,1,2.744.152A2.247,2.247,0,0,1,282.687,21.927Z"/><path class="b" d="M292.291,23.888a2.5,2.5,0,0,1-1.019,1.882,1.946,1.946,0,0,1-1.431.27,2.178,2.178,0,0,1-1.574-1.185,2.55,2.55,0,0,1,.631-2.934,2.017,2.017,0,0,1,2.743.151A2.249,2.249,0,0,1,292.291,23.888Z"/><path class="b" d="M291.871,14.912a20.487,20.487,0,0,0,1,2.17,11.255,11.255,0,0,0,1.228,1.75,8.684,8.684,0,0,0,2.926,2.188,2.153,2.153,0,0,0,1.541.2,2.046,2.046,0,0,0,1.2-.919,2.02,2.02,0,0,0,.2-1.542,1.966,1.966,0,0,0-.919-1.2,8.33,8.33,0,0,1-1.512-.906l.405.312a6.9,6.9,0,0,1-1.22-1.23l.313.4A11.852,11.852,0,0,1,295.62,13.6l.2.478c-.032-.075-.063-.15-.094-.225a2.206,2.206,0,0,0-.919-1.2,2.044,2.044,0,0,0-1.541-.2,2.017,2.017,0,0,0-1.195.919,1.929,1.929,0,0,0-.2,1.541Z"/><path class="b" d="M292.79,12.5a13.575,13.575,0,0,1-3.449,1.04,12.223,12.223,0,0,1-1.706.2,4.437,4.437,0,0,1-1.32-.068l1.195,2.938c.709-1.267,1.365-2.951.19-4.183-1.3-1.366-2.976-.556-4.476-.141a29.487,29.487,0,0,1-9.572.914c-2.572-.142-2.564,3.858,0,4a34.477,34.477,0,0,0,6.511-.233c1.036-.139,2.064-.314,3.081-.555q.7-.166,1.391-.367.435-.128.865-.267c.116-.037.232-.075.346-.115q.447-.135-.21,0l-.882-.514.117.107-.514-.883c-.286-.7.139-.561,0-.352-.115.176-.2.386-.3.57a2.022,2.022,0,0,0,1.195,2.938,12.024,12.024,0,0,0,4.882-.079,15.626,15.626,0,0,0,4.676-1.491c2.278-1.2.259-4.654-2.019-3.454Z"/><path class="a" d="M294.27,79.533l24.785-59.774c.706-1.684-.432-3.085-1.771-4.326a15,15,0,0,0-7.316-3.065c-1.818-.166-3.62.088-4.326,1.771l-40.7,97.771a3.539,3.539,0,0,0-.272,1.51l.045,16.3a.66.66,0,0,0,1.1.463c3.634-3.3,7.805-7.881,11.458-11.226a4.713,4.713,0,0,0,1.171-1.65Z"/><path class="e" d="M307.911,12.425a2.861,2.861,0,0,0-2.269,1.714l-40.4,97.035,13.415,5.62,15.61-37.261,24.785-59.774c.706-1.684-.432-3.085-1.771-4.326a15,15,0,0,0-7.316-3.065A7.466,7.466,0,0,0,307.911,12.425Z"/><path class="b" d="M264.707,128.439l-.016-5.792,6.2,2.6c-1.735,1.753-3.458,3.474-5.074,4.942a.66.66,0,0,1-1.1-.463Z"/><path class="b" d="M271.1,123.181l-5.5-2.3a2.005,2.005,0,0,0-1.541.2,2,2,0,0,0-.717,2.736l.312.405a2,2,0,0,0,.883.514l5.5,2.3a2,2,0,0,0,1.542-.2,2,2,0,0,0,.717-2.737l-.313-.4a1.992,1.992,0,0,0-.882-.515Z"/><path class="b" d="M296.2,80.065l7.854-18.94L317.165,29.5l3.558-8.582c2.791-6.732-7.865-11.489-13.226-10.44-3.013.589-3.791,3.148-4.8,5.575l-3.577,8.592-12.031,28.9-13.61,32.69L264.2,108.524a13.768,13.768,0,0,0-1.532,4.941c-.11,4.714.026,9.446.039,14.161,0,.675-.033,1.36,0,2.034a2.7,2.7,0,0,0,4.52,1.939c3.889-3.244,7.179-7.229,10.876-10.688,2.547-2.382,3.6-6.254,4.923-9.411L295.3,82.2l.894-2.133a2.011,2.011,0,0,0-1.4-2.46,2.051,2.051,0,0,0-2.46,1.4l-6.854,16.36-8.615,20.563c-.611,1.46-1.5,2.049-2.778,3.287-1.658,1.6-3.271,3.258-4.9,4.9q-1.138,1.147-2.289,2.283-.594.582-1.2,1.156l-.442.418c-.145.137-.29.272-.437.407-.189.158-.195.177-.016.056h1.063l.043.019.718.718c.129.178.03.817.068.318.017-.218,0-.446,0-.665l-.007-2.432-.018-6.794-.015-5.444a4.641,4.641,0,0,1,.249-1.828c1.315-3.339,2.761-6.632,4.14-9.944l8.824-21.195L290.66,55.291l9.853-23.668L306.725,16.7l.647-1.554a3.828,3.828,0,0,1,.156-.374c.014-.026.019-.06.035-.085-.126.187,0,0,.12-.067,1.307-.668,3.043-.177,4.358.252a10.637,10.637,0,0,1,3.981,2.118c.7.654,1.435,1.29,1.087,2.277-.049.141-.116.277-.172.416-2.168,5.325-4.405,10.623-6.607,15.934L299.794,61.028l-7.086,17.089-.367.885a2.012,2.012,0,0,0,1.4,2.46A2.051,2.051,0,0,0,296.2,80.065Z"/><path class="b" d="M265.853,113.58l12.456,5.218a2,2,0,0,0,2.46-1.4,2.063,2.063,0,0,0-1.4-2.46l-12.456-5.218a2,2,0,0,0-2.46,1.4,2.063,2.063,0,0,0,1.4,2.46Z"/><path class="a" d="M308.722,62c2.156-1.345,3.053-3.617,3.405-6.028.395-2.7-.068-6.145-4-7.128a5.606,5.606,0,0,0-4.1.764,7.68,7.68,0,0,0-3.773,7.45c.266,3.2,3.288,6.143,6.47,5.678A5.151,5.151,0,0,0,308.722,62Z"/><path class="b" d="M309.732,63.73c3.041-1.967,4.407-5.48,4.506-9,.084-3.037-1.258-6.02-4.146-7.293-3.516-1.55-7.306-.188-9.672,2.716a9.5,9.5,0,0,0-1.324,10c1.895,3.972,6.737,5.9,10.636,3.577,2.21-1.315.2-4.774-2.019-3.454a2.862,2.862,0,0,1-2.906.244c.323.126-.055-.036-.132-.077-.142-.075-.282-.156-.417-.242-.109-.07-.218-.143-.321-.22.242.181-.017-.02-.052-.054-.238-.23-.471-.452-.688-.7-.033-.038-.213-.3-.05-.064-.113-.164-.222-.329-.322-.5a3.489,3.489,0,0,1-.521-1.353c-.028-.126-.056-.258-.073-.387.047.367.01-.08,0-.17a9,9,0,0,1,.01-1.1c.01-.128.02-.259.038-.386-.053.377.017-.03.037-.123a7.244,7.244,0,0,1,.217-.8c.038-.116.08-.231.124-.344-.135.347.012-.021.058-.105.161-.3.332-.579.51-.866.032-.051.224-.3.018-.041.077-.1.159-.194.241-.287a8.662,8.662,0,0,1,.673-.682,5.111,5.111,0,0,1,1.346-.946c.329-.169-.391.1.217-.092.135-.042.269-.085.406-.12-.048.012.617-.128.341-.083s.357-.029.324-.027c.242-.012.481,0,.722.01-.429-.015-.128-.026.007.009.19.049.379.1.566.159.083.027.48.186.155.043.112.049.222.1.329.162s.206.114.305.177c0,0,.447.322.212.136s.168.16.169.162c.076.073.145.156.221.228.251.238.032.028-.018-.043.089.124.174.251.252.383.065.109.12.222.18.333s.144.432.009.008c.069.216.144.427.2.649.034.135.136.83.078.287.027.251.049.5.056.755.008.275,0,.551-.013.827-.009.141-.117.995-.026.417a13.476,13.476,0,0,1-.452,2.014,5.307,5.307,0,0,1-2.034,2.819A2.044,2.044,0,0,0,307,63.012,2.022,2.022,0,0,0,309.732,63.73Z"/><path class="a" d="M281.44,56.8c7.44-2.29,11.964,6.92,5.395,11.357-1.96,1.193-5.565,1.547-7.2-.423"/><path class="b" d="M281.972,58.73c.232-.069.465-.133.7-.184.092-.02.184-.038.276-.055l.136-.023c.18-.028.181-.028,0,0l-.132.019c.088-.009.177-.017.266-.024s.174-.011.262-.014c.212-.007.426,0,.638.007.1.006.209.025.311.025.28,0-.519-.1-.107-.013.176.036.352.068.526.114s.339.095.5.154a1.245,1.245,0,0,0,.217.081c-.462-.057-.228-.1-.008.009.306.152.572.353.865.524.223.131-.379-.342-.1-.075.053.051.114.1.168.145.151.134.3.276.432.424.081.087.285.255.32.375-.059-.2-.237-.335-.116-.142.048.078.1.151.152.227.088.138.172.279.249.423.043.08.081.163.124.243.205.386-.087-.266-.026-.078a10.3,10.3,0,0,1,.3.991c.017.077.123.376.078.432.03-.037-.043-.533-.029-.149,0,.11.015.22.018.331,0,.166,0,.333-.008.5,0,.092-.022.187-.023.279,0,.267.114-.53.019-.142s-.177.74-.3,1.108c-.062.185-.143.111.068-.15a1.354,1.354,0,0,0-.1.217c-.088.182-.186.36-.292.533s-.219.308-.314.468c-.14.237.326-.369.034-.049-.089.1-.172.2-.263.3q-.186.2-.386.384c-.085.078-.686.551-.253.234a5.662,5.662,0,0,1-.528.355c-.095.054-.191.1-.289.151l-.12.057c-.2.088-.164.074.1-.042-.081.119-.522.182-.669.223-.259.073-.519.123-.781.177l-.073.012q-.337.051.093-.012a1.262,1.262,0,0,1-.443.033,6.931,6.931,0,0,1-.735-.005c-.033,0-.514-.046-.169-.007.325.036-.164-.037-.229-.051-.116-.026-.23-.056-.343-.09l-.134-.042q-.309-.114.088.051c-.2-.019-.43-.23-.6-.33-.349-.206.143.218.028.018a2.958,2.958,0,0,0-.335-.348,2.01,2.01,0,0,0-2.828,0,2.05,2.05,0,0,0,0,2.829c1.783,2.061,4.9,2.309,7.386,1.66a8.739,8.739,0,0,0,5.4-4.272,8.285,8.285,0,0,0-2.88-10.865,8.836,8.836,0,0,0-7.22-.8,2,2,0,1,0,1.064,3.857Z"/><path class="a" d="M63.314,142.4c2.867-.011,5.843-.224,9.013-.477a72.962,72.962,0,0,0,7.76-1.067L77.8,160.513l1.757,1.593c1.033.937,4.162,3.648,4.829,4.872A4.5,4.5,0,0,1,84.7,171a4.36,4.36,0,0,1-3.045,2.2,10.049,10.049,0,0,1-3.862-.082,25.963,25.963,0,0,1-5.616-1.612l-.54-.218a3.063,3.063,0,0,1,.08.306,5.876,5.876,0,0,1-.177,2.711,4.129,4.129,0,0,1-2.523,2.376,3.584,3.584,0,0,1-.99.271c-3.937.483-7.328-1.32-10.623-2.975a5.591,5.591,0,0,1-2.5-2.382c-.891-1.729-.885-3.273.042-5.583q.519-12.073,1.036-24.144A42.884,42.884,0,0,0,63.314,142.4Z"/><path class="b" d="M77.911,142.363l-2.434,20.942a2.012,2.012,0,0,0,2,2,2.049,2.049,0,0,0,2-2l2.434-20.942a2.012,2.012,0,0,0-2-2,2.047,2.047,0,0,0-2,2Z"/><path class="b" d="M66.238,144.541l-1.725,20.551a2.016,2.016,0,0,0,2,2,2.04,2.04,0,0,0,2-2l1.725-20.551a2.016,2.016,0,0,0-2-2,2.041,2.041,0,0,0-2,2Z"/><path class="b" d="M53.957,142.454l-1,23.346c-.11,2.574,3.89,2.569,4,0l1-23.346c.111-2.574-3.89-2.569-4,0Z"/><path class="b" d="M78.144,163.52c1.135,1.027,2.289,2.034,3.364,3.124.276.28.548.565.806.862.047.054.182.264.247.294q-.287-.377-.106-.133c.039.055.077.11.114.167a3.678,3.678,0,0,1,.27.512c-.124-.291.113.4.131.471.032.13.059.26.081.393q-.045-.3-.013.062c.005.132,0,.264,0,.4q.06-.308-.01.052a3.312,3.312,0,0,1-.106.378q.118-.251-.033.053a3.422,3.422,0,0,1-.194.31q.19-.243-.036.019c-.085.088-.174.172-.266.253.166-.12.154-.112-.037.021a5.972,5.972,0,0,1-.65.361c.359-.16-.325.089-.4.109-.056.014-.59.122-.323.081a8.363,8.363,0,0,1-1.824,0q-.379-.048-.153-.01c-.151-.021-.3-.045-.453-.07-.3-.049-.6-.1-.9-.162-.563-.111-1.123-.237-1.678-.384a28.308,28.308,0,0,1-3.266-1.1,2.006,2.006,0,0,0-2.46,1.4,2.06,2.06,0,0,0,1.4,2.46A27.784,27.784,0,0,0,77.6,175.1c2.275.362,4.767.446,6.773-.89a5.811,5.811,0,0,0,2.538-6.061,8.148,8.148,0,0,0-2.516-4.274c-1.091-1.112-2.265-2.136-3.419-3.18a2,2,0,1,0-2.829,2.828Z"/><path class="b" d="M68.007,169.428a5.077,5.077,0,0,1,1.65,2.207,4.146,4.146,0,0,1,.057,1.879,1.56,1.56,0,0,1-.579.824c.2-.178-.238.158-.291.189a4.138,4.138,0,0,1-.616.321,6.276,6.276,0,0,1-2.821.1,21.1,21.1,0,0,1-6.346-2.373,5.174,5.174,0,0,1-2.228-1.642,3.508,3.508,0,0,1-.52-2.626,2.054,2.054,0,0,0-1.4-2.461,2.019,2.019,0,0,0-2.46,1.4,7.633,7.633,0,0,0,2.189,7.239,13.583,13.583,0,0,0,3.184,1.939,38.4,38.4,0,0,0,3.56,1.574c2.345.877,5.334,1.514,7.793.744a6.194,6.194,0,0,0,4.464-4.633,7.933,7.933,0,0,0-2.81-7.5,2.054,2.054,0,0,0-2.829,0,2.017,2.017,0,0,0,0,2.828Z"/><path class="f" d="M62.665,82.481A21.4,21.4,0,0,0,54.986,86.5a18.246,18.246,0,0,0-2.952,3.3,23.214,23.214,0,0,0-2.6,5.508A16.378,16.378,0,0,0,51.614,109.9a9.789,9.789,0,0,0,4.762,3.666c-2,7.1-4.559,15.777-6.04,24.207a2.9,2.9,0,0,0,2.031,3.272c6.316,1.831,12.618,1.466,19.96.879,2.76-.221,9.51-1,14.179-2.842,1.51-1.407-.305-18.6-1.465-25.525l-.191-1.139.216-.923c.341-1.459,1.6-7.141,2.087-8.557a30.677,30.677,0,0,0,1.319-5.022s3.331-2.892,4.716-2.954c6.855-.307,11.656-.48,19.5-1.069a1.414,1.414,0,0,0,1.275-1.315c.1-2.428.255-5.5.324-7.35a1.476,1.476,0,0,0-1.246-1.517c-4.636-.736-16.095-2.368-24.39-3.757Z"/><path class="a" d="M82.531,52.283a17.638,17.638,0,0,0-19.352.8A15.172,15.172,0,0,0,57.928,70.8a4.231,4.231,0,0,0-2.46,3.11A5.82,5.82,0,0,0,57.682,79.1a9.17,9.17,0,0,0,6.1,1.908,15.875,15.875,0,0,0,22.3-1.614c5.792-6.555,5.895-17.418.09-24.022A16.247,16.247,0,0,0,82.531,52.283Z"/><path class="a" d="M57.652,60.7a14.846,14.846,0,0,1,5.527-7.618c7.108-5.05,17.155-4.355,23,2.289q.453.516.858,1.064l-3.29,3.419c-1.532,1.593-5.47,3.681-7.329,3.732.122-.565.375-1.8-.19-1.918a.862.862,0,0,0-.674.148,30.229,30.229,0,0,1-10.971,5.032l-5.2,3.594a3.971,3.971,0,0,0-1.447.358A15.2,15.2,0,0,1,57.652,60.7Z"/><path class="b" d="M59.612,69.587a13.308,13.308,0,0,1,4.427-14.669,15.891,15.891,0,0,1,15.373-2.01c10.764,4.471,12.176,20.627,2.81,27.321a14.139,14.139,0,0,1-17.481-1.051c-1.882-1.754-4.717,1.069-2.829,2.828a18.281,18.281,0,0,0,19.912,3.069c6.7-3.076,10.547-10.314,10.652-17.5A19.022,19.022,0,0,0,63.67,50.4,17.354,17.354,0,0,0,55.755,70.65c.781,2.442,4.644,1.4,3.857-1.063Z"/><path class="b" d="M59.376,68.442a6.46,6.46,0,0,0-4.96,2.818,6.348,6.348,0,0,0-.633,5.575c1.356,3.911,5.345,6.092,9.345,6.191a2,2,0,0,0,0-4,7.56,7.56,0,0,1-3.3-.893,9.154,9.154,0,0,1-.87-.555c.343.245-.036-.035-.108-.1q-.18-.16-.346-.335c-.112-.117-.216-.24-.32-.363.29.345-.013-.03-.07-.117-.089-.136-.173-.274-.252-.416-.027-.05-.288-.591-.18-.341s-.077-.23-.095-.286c-.048-.152-.089-.305-.124-.46-.018-.077-.034-.155-.047-.233q.042.371.018.143c-.007-.156-.023-.311-.023-.467,0-.061.016-.586,0-.277s.044-.185.062-.255.175-.536.069-.254.094-.169.127-.226.294-.474.132-.228.131-.143.178-.192c.1-.107.218-.2.325-.3s.074-.065-.113.085c.06-.043.121-.084.184-.123.124-.08.262-.14.385-.22q.2-.1-.142.049c.068-.028.137-.053.207-.076a3.947,3.947,0,0,1,.425-.12c.524-.118-.294.009.124-.02a2,2,0,0,0,0-4Z"/><path class="b" d="M79.925,69.93a2.524,2.524,0,0,0,1.03,1.9,1.965,1.965,0,0,0,1.447.274,2.2,2.2,0,0,0,1.592-1.2,2.577,2.577,0,0,0-.638-2.967,2.04,2.04,0,0,0-2.774.152A2.276,2.276,0,0,0,79.925,69.93Z"/><path class="b" d="M70.212,71.914a2.528,2.528,0,0,0,1.03,1.9,1.972,1.972,0,0,0,1.448.274,2.2,2.2,0,0,0,1.591-1.2,2.58,2.58,0,0,0-.637-2.968,2.041,2.041,0,0,0-2.775.153A2.276,2.276,0,0,0,70.212,71.914Z"/><path class="b" d="M82.328,58.44a11.931,11.931,0,0,1-3.017,2.068,12.414,12.414,0,0,1-1.66.749c-.282.1-.568.19-.859.261-.129.032-.259.06-.39.083.23-.027.233-.032.011-.015l1.928,2.531c.3-1.426.481-3.237-.974-4.116-1.749-1.058-3.279.47-4.669,1.34a29.854,29.854,0,0,1-8.652,3.578c-2.5.627-1.438,4.485,1.064,3.857a36.389,36.389,0,0,0,6.284-2.195A28.788,28.788,0,0,0,74.043,65.2q.679-.4,1.338-.837c.221-.147.44-.3.657-.449l.261-.185q.553-.349-.076-.064L75.214,63.4q-.654-1.7-.64-.933c-.011.137,0,.143.02.017-.051.186-.07.386-.11.575a2.023,2.023,0,0,0,1.929,2.532,12.033,12.033,0,0,0,4.676-1.5,15.86,15.86,0,0,0,4.068-2.819c1.818-1.826-1.009-4.656-2.829-2.828Z"/><path class="b" d="M83.112,114.085c.769,4.629,1.271,9.314,1.639,13.99.182,2.308.333,4.626.329,6.942,0,.8-.029,1.592-.1,2.386-.043.49.079-.338-.008.066-.026.123-.057.25-.076.375-.057.381-.106.134-.024.15q.12-.267.029-.086-.163.254.19-.244l.882-.514c-6.309,2.433-13.394,2.927-20.091,3.189a42.45,42.45,0,0,1-11.542-.846c-.568-.136-1.555-.193-1.913-.73-.335-.5-.01-1.326.09-1.854.411-2.179.884-4.346,1.4-6.5,1.09-4.595,2.364-9.143,3.649-13.687.7-2.481-3.157-3.54-3.857-1.063-1.07,3.784-2.133,7.57-3.088,11.385-.5,2-.971,4-1.4,6.014-.379,1.79-1.072,3.858-.887,5.7.408,4.062,4.758,4.716,8.044,5.182a57.029,57.029,0,0,0,11.3.317c6.333-.361,13.047-.841,19.026-3.114,2.011-.764,2.221-2.512,2.336-4.437a53.212,53.212,0,0,0-.134-6.5,171.07,171.07,0,0,0-1.934-17.178,2.015,2.015,0,0,0-2.46-1.4,2.047,2.047,0,0,0-1.4,2.46Z"/><path class="a" d="M66.364,108.774a1.262,1.262,0,0,0,1.143.4,2.766,2.766,0,0,0,1.109-.576,10.57,10.57,0,0,0,2.807-4.84,5.758,5.758,0,0,0,.279-2.537,3.715,3.715,0,0,0-.788-2.007,4.858,4.858,0,0,0-5.882-.827,6,6,0,0,0-2.283,2.791,10.044,10.044,0,0,0-.7,3.574"/><path class="b" d="M64.949,110.188a3.372,3.372,0,0,0,3.949.591,7.047,7.047,0,0,0,2.517-2.355,12.926,12.926,0,0,0,1.475-2.859,10.5,10.5,0,0,0,.845-3.454,5.754,5.754,0,0,0-3.307-5.666,6.833,6.833,0,0,0-7.374.936c-2.142,1.8-2.9,4.684-3.008,7.372a2.015,2.015,0,0,0,2,2,2.041,2.041,0,0,0,2-2c.008-.2.017-.407.033-.61.007-.088.057-.584.018-.279a8.59,8.59,0,0,1,.306-1.389c.059-.194.128-.385.2-.576-.107.288.048-.092.1-.186.079-.155.165-.308.257-.457.045-.075.093-.148.142-.221.021-.032.237-.321.1-.15-.115.145.185-.2.24-.26.121-.125.258-.234.378-.359.152-.156-.03.02-.064.043.072-.049.143-.1.216-.147a3.643,3.643,0,0,1,.555-.3c-.347.144.2-.036.294-.059s.178-.037.266-.057c-.041.01-.31.014-.081.016.182,0,.364-.019.547-.013.091,0,.182.013.273.016-.2-.006-.175-.035.012.006s.355.081.529.137c.108.034.493.218.216.072.163.086.327.165.484.26.074.046.145.1.219.143.23.135-.248-.071-.024-.01.039.01.3.281.088.068-.17-.173-.013-.018.02.037.075.125.149.25.222.376.175.308-.07-.293.016.066.045.188.091.373.129.563.044.221-.01-.025-.01-.06,0,.1.013.2.016.3,0,.2-.017.4-.016.593,0,.228,0,.009.012-.041-.016.1-.036.2-.057.291-.049.227-.112.449-.183.669-.121.373-.255.743-.4,1.109-.032.083-.066.165-.1.248.011-.03.126-.278.029-.07-.087.185-.169.372-.26.555a9.9,9.9,0,0,1-.608,1.052c-.048.071-.1.14-.149.214-.154.248.191-.209-.006.011-.138.154-.268.314-.412.463-.083.086-.172.167-.257.252-.268.272.068.013.072-.036,0,.031-.561.344-.289.194.2-.112.04-.007-.028,0,.086-.012.458-.01.185-.033,0,0,.437.08.207.024-.158-.039.246.1.294.148a2,2,0,0,0-2.829,2.828Z"/><path class="b" d="M88.114,81.879c6.74,1.125,13.5,2.11,20.261,3.125,1.2.181,2.405.361,3.606.549.095.015.349.113.422.067-.046.029.189-.127.029-.088-.28.067.124-.528-.156-.157-.05.066-.015.386-.018.472-.036.877-.077,1.753-.118,2.63q-.061,1.35-.123,2.7c-.008.175.049.963.021,1.016.179-.339.2-.128-.081-.251a3.02,3.02,0,0,0-.942.068q-2.871.206-5.744.372c-4.026.231-8.055.4-12.083.575-2.563.114-2.578,4.115,0,4,4.095-.183,8.19-.35,12.281-.587,2.243-.13,4.489-.254,6.728-.446a3.954,3.954,0,0,0,2.936-1.248,4.9,4.9,0,0,0,.875-3.294c.087-1.993.29-4.013.268-6.008a3.625,3.625,0,0,0-3.341-3.7c-3.33-.52-6.666-1-10-1.5-4.59-.69-9.18-1.388-13.759-2.152a2.06,2.06,0,0,0-2.46,1.4,2.017,2.017,0,0,0,1.4,2.46Z"/><path class="b" d="M86.543,97.381c-.4,2.546-1.361,4.948-1.976,7.444-.5,2.039-.952,4.089-1.43,6.134a2.043,2.043,0,0,0,1.4,2.46,2.021,2.021,0,0,0,2.46-1.4c.478-2.045.928-4.1,1.43-6.135.615-2.5,1.577-4.9,1.976-7.444a2.062,2.062,0,0,0-1.4-2.46,2.015,2.015,0,0,0-2.46,1.4Z"/><path class="b" d="M78.559,112.619c-1.409.331-2.832.6-4.265.807l-.253.035c.223-.029.259-.034.11-.015-.2.023-.394.049-.592.072q-.507.059-1.016.106-1.1.1-2.207.154a2,2,0,0,0,0,4,51.48,51.48,0,0,0,9.286-1.3,2.017,2.017,0,0,0,1.4-2.46,2.044,2.044,0,0,0-2.46-1.4Z"/><path class="b" d="M117.843,93.2A4.9,4.9,0,0,0,121,96.19a7.308,7.308,0,0,0,4.915.129c3.516-1.432,4.579-5.827,3.3-9.139l-1.929,2.531c.955.033,1.91.051,2.866.038a13.294,13.294,0,0,0,3.252-.215,3.954,3.954,0,0,0,2.063-6.045c-1.165-1.761-3.124-2.294-5.059-2.745-1.658-.388-3.335-.721-5.016-.994a7.69,7.69,0,0,0-6.531,1.554,2,2,0,0,0,2.829,2.828q.253-.228,0-.022a3.352,3.352,0,0,1,.311-.185c.209-.1.22-.109.031-.024.119-.044.239-.083.36-.118.183-.053.369-.087.554-.132q.36-.06.023-.013c.12-.013.24-.024.36-.032.373-.024.735.007,1.107.012-.608-.008-.088-.007.077.021l.42.072c1.774.313,3.55.656,5.295,1.107.353.091.706.186,1.053.3.057.018.506.214.257.086.014.007.512.332.264.133a3.026,3.026,0,0,1,.281.274q-.164-.233.028.059c.11.21.119.224.029.041.047.209.06.245.04.106s-.016-.1-.006.117c.04-.192.032-.172-.026.059a.5.5,0,0,1,.162-.292c-.166.154-.156.147.032-.023-.481.2.4-.147-.076.02-.226.046-.183.044.131-.005-.132.009-.265.014-.4.015q-.822.027-1.645.039c-1.025.017-2.048,0-3.072-.035a2.012,2.012,0,0,0-1.928,2.532A4.258,4.258,0,0,1,125.64,91a2.476,2.476,0,0,1-.41.944,1.857,1.857,0,0,1-.832.7q-.193.1.031-.02c-.214.053-.238.057-.071.014a6.457,6.457,0,0,1-.723.011,3.245,3.245,0,0,1-1.1-.162c-.085-.023-.681-.263-.344-.1a5.142,5.142,0,0,1-.463-.262c.35.218-.009-.03-.092-.107q.221.315.041.042-.155-.3.027.078a2.049,2.049,0,0,0-2.461-1.4,2.02,2.02,0,0,0-1.4,2.46Z"/><path class="b" d="M62.133,80.553A21.039,21.039,0,0,0,46.774,98.012c-1.006,7.616,3.025,16.87,11.361,17.925a2.01,2.01,0,0,0,2-2,2.049,2.049,0,0,0-2-2c-6.012-.761-8.287-9.07-7.313-14.076A17.09,17.09,0,0,1,63.2,84.41c2.481-.673,1.428-4.533-1.064-3.857Z"/><path class="b" d="M77.211,162.56c.622-.274.15-.066,0-.018s-.279.086-.42.121a8.2,8.2,0,0,0-.809.158c.328-.043.381-.05.16-.024-.085.01-.17.019-.255.026-.176.016-.352.029-.528.038-.346.019-.692.026-1.039.025-.735,0-1.47-.04-2.2-.1-.376-.031-.751-.069-1.125-.111q-.3-.033-.6-.071l-.3-.038q.429.057.091.011a2.2,2.2,0,0,0-1.541.2,2,2,0,0,0,.478,3.655c3.288.46,6.968.962,10.1-.42a2.006,2.006,0,0,0,.718-2.736,2.062,2.062,0,0,0-2.737-.717Z"/><path class="b" d="M66.154,164.331c-.077.078-.17.147-.242.229-.137.155.279-.138.081-.066a4.714,4.714,0,0,0-.547.316c-.216.115-.055.013.075-.027-.12.036-.237.086-.357.125-.224.071-.452.131-.682.181q-.157.034-.318.063c-.056.01-.513.072-.226.039.259-.03-.11.008-.155.012-.144.013-.287.024-.431.033-.531.031-1.064.032-1.6.011-.508-.02-1.016-.06-1.521-.117-.181-.021-.377-.047-.084-.006-.115-.017-.23-.033-.345-.051-.253-.039-.506-.082-.757-.129a9.333,9.333,0,0,1-1.307-.341c-.139-.047-.275-.1-.413-.151.183.068.145.069-.012-.01-.1-.051-.207-.1-.307-.157-.075-.042-.509-.347-.116-.037a2.054,2.054,0,0,0-2.829,0,2.023,2.023,0,0,0,0,2.829c2.137,1.688,5.044,2.065,7.691,2.17,2.491.1,5.383-.226,7.227-2.088a2,2,0,0,0-2.829-2.828Z"/></svg>