<svg xmlns="http://www.w3.org/2000/svg" width="373.982" height="274.337" viewBox="0 0 373.982 274.337"><defs><style>.a{fill:#fff;}.b{fill:#fcdc4a;}.c{fill:#211715;}</style></defs><path class="a" d="M158.209,271.724l1.06.612,209.716-121.08L211.7,60.447,1.983,181.526Z"></path><path class="a" d="M134,84.955a3.116,3.116,0,0,0-1.828-1.673,59.513,59.513,0,0,0-7.487-1.661c-1.026-.166-3.305-.043-4.411,1.068l-5.993,2.392a.485.485,0,0,1,.006.114c-.069,1.85-.227,4.923-.324,7.35a1.249,1.249,0,0,1-.052.311c2.353-.088,5.866-.216,5.866-.216.4,1.346,2.428,2.159,4.834,1.95a3.967,3.967,0,0,0,2.8-2.562,5.9,5.9,0,0,0-.127-4.345c1.824.065,2.827.051,4.993-.013a1.812,1.812,0,0,0,1.886-1.569A2.318,2.318,0,0,0,134,84.955Z"></path><path class="a" d="M293.714,120.654a12.082,12.082,0,0,1-6.873-3.345c-3.615.54-7.648.7-10.2-.555-1.311,1.169-4.174,3.7-4.826,4.9a4.79,4.79,0,0,0-.329,4.278,4.645,4.645,0,0,0,3.243,2.342,10.691,10.691,0,0,0,4.113-.087,27.668,27.668,0,0,0,5.982-1.717l.576-.232a2.9,2.9,0,0,0-.086.326,6.264,6.264,0,0,0,.188,2.887,4.4,4.4,0,0,0,2.685,2.53,8.462,8.462,0,0,0,4.7.163,25.386,25.386,0,0,0,6.641-2.525,7.748,7.748,0,0,0,3.55-2.8,5.765,5.765,0,0,0,.691-4.322,6.457,6.457,0,0,0-1.09-2.386,11.1,11.1,0,0,1-2.165.463A28.7,28.7,0,0,1,293.714,120.654Z"></path><path class="a" d="M292.835,79.469c-.362.026-.728.048-1.1.068a136.685,136.685,0,0,1-17.471-.451c.008.2.01.311.01.311.184,9,1.092,29.476,1.5,36.829,2.425,1.822,7.01,1.689,11.067,1.083,4.167,3.963,8.759,3.737,13.674,3.265a8.9,8.9,0,0,0,3.458-1.053c.123-9.826.014-31.99-.591-41.621A70.549,70.549,0,0,1,292.835,79.469Z"></path><path class="a" d="M278.325,33.891c-4.027,2.416-7.743,5.1-10.271,8.668a34.669,34.669,0,0,0-5.687,12.4c-.536,2.539-.776,5.354.288,7.657a9.174,9.174,0,0,0,2.948,3.408c1.649,1.239,3.7,2.17,5.55,1.1.513,4.461.131,7.876.428,11.747a153.727,153.727,0,0,0,20.155.666,68.827,68.827,0,0,0,10.557-1.4,3.542,3.542,0,0,0,2.826-3.465V60.952c4.7-4.1,6.348-9.926,4.537-15.115a20.859,20.859,0,0,0-2.335-4.949,16.435,16.435,0,0,0-2.652-2.968,19.229,19.229,0,0,0-6.9-3.612Z"></path><path class="a" d="M304.678,22.084a15,15,0,0,0-5.434-16.845C292.216.246,282.283.933,276.508,7.5c-5.739,6.529-5.638,17.27.089,23.751a15.691,15.691,0,0,0,22.5,1.186"></path><path class="a" d="M304.742,12.874a14.687,14.687,0,0,0-5.5-7.635C292.216.246,282.283.933,276.508,7.5a17.135,17.135,0,0,0-3.794,7.592,30.2,30.2,0,0,0,12.774-1.452.854.854,0,0,1,.68.059c.5.28-.1,1.368-.385,1.865,1.757.5,6.038-.3,7.974-1.344,1.072,2.673,2.16,4.049,4.28,5.041l6.641,2.82A15.058,15.058,0,0,0,304.742,12.874Z"></path><path class="a" d="M294.27,79.5,319.055,19.73c.706-1.684-.432-3.085-1.771-4.326a15,15,0,0,0-7.316-3.065c-1.818-.166-3.62.088-4.326,1.772l-40.7,97.77a3.54,3.54,0,0,0-.272,1.511l.045,16.3a.66.66,0,0,0,1.1.463c3.634-3.3,7.805-7.881,11.458-11.226a4.7,4.7,0,0,0,1.171-1.65Z"></path><path class="a" d="M308.722,61.974c2.156-1.345,3.053-3.617,3.405-6.028.395-2.7-.068-6.145-4-7.128a5.6,5.6,0,0,0-4.1.765,7.677,7.677,0,0,0-3.773,7.449c.266,3.205,3.288,6.143,6.47,5.678A5.151,5.151,0,0,0,308.722,61.974Z"></path><path class="a" d="M63.314,142.369c2.867-.012,5.843-.224,9.013-.478a72.7,72.7,0,0,0,7.76-1.067L77.8,160.484l1.757,1.593c1.033.937,4.162,3.648,4.829,4.873a4.494,4.494,0,0,1,.309,4.016,4.36,4.36,0,0,1-3.045,2.2,10.049,10.049,0,0,1-3.862-.082,25.963,25.963,0,0,1-5.616-1.612l-.54-.218a3.011,3.011,0,0,1,.08.307,5.872,5.872,0,0,1-.177,2.71,4.129,4.129,0,0,1-2.523,2.376,3.584,3.584,0,0,1-.99.271c-3.937.484-7.328-1.319-10.623-2.975a5.591,5.591,0,0,1-2.5-2.382c-.891-1.729-.885-3.273.042-5.583q.519-12.073,1.036-24.144A42.985,42.985,0,0,0,63.314,142.369Z"></path><path class="a" d="M82.531,52.255a17.636,17.636,0,0,0-19.352.8,15.172,15.172,0,0,0-5.251,17.715,4.231,4.231,0,0,0-2.46,3.11,5.819,5.819,0,0,0,2.214,5.192,9.17,9.17,0,0,0,6.1,1.908,15.877,15.877,0,0,0,22.3-1.613c5.792-6.556,5.895-17.419.09-24.023A16.216,16.216,0,0,0,82.531,52.255Z"></path><path class="a" d="M57.652,60.671a14.846,14.846,0,0,1,5.527-7.618c7.108-5.05,17.155-4.355,23,2.289q.453.516.858,1.064l-3.29,3.419c-1.532,1.593-5.47,3.681-7.329,3.732.122-.565.375-1.8-.19-1.917a.862.862,0,0,0-.674.148,30.227,30.227,0,0,1-10.971,5.031l-5.2,3.594a3.991,3.991,0,0,0-1.447.358A15.2,15.2,0,0,1,57.652,60.671Z"></path><path class="a" d="M66.364,108.745a1.26,1.26,0,0,0,1.143.4,2.754,2.754,0,0,0,1.109-.576,10.565,10.565,0,0,0,2.807-4.84,5.758,5.758,0,0,0,.279-2.537,3.715,3.715,0,0,0-.788-2.007,4.858,4.858,0,0,0-5.882-.827,6,6,0,0,0-2.283,2.791,10.044,10.044,0,0,0-.7,3.574"></path><path class="b" d="M166.409,139.266l19.315,11.151a1.118,1.118,0,0,1,0,2.117l-7.256,4.19a4.057,4.057,0,0,1-3.667,0l-19.315-11.152a1.117,1.117,0,0,1,0-2.117l7.256-4.189A4.05,4.05,0,0,1,166.409,139.266Z" style="fill: rgb(82, 153, 240);"></path><path class="b" d="M211.956,69.893l23.028,13.3a.948.948,0,0,1,0,1.8l-8.822,5.094a3.44,3.44,0,0,1-3.112,0l-23.029-13.3a.949.949,0,0,1,0-1.8l8.822-5.093A3.442,3.442,0,0,1,211.956,69.893Z" style="fill: rgb(82, 153, 240);"></path><path class="b" d="M317.284,15.4a15,15,0,0,0-7.316-3.065,7.465,7.465,0,0,0-2.057.058,2.857,2.857,0,0,0-2.269,1.714L287.515,57.652c3.134,2.351,3.74,7.493-.68,10.478a7.385,7.385,0,0,1-4.076.945c-8.235,19.782-15.909,38.216-17.514,42.07l13.415,5.62L294.27,79.5,302,60.855a6.5,6.5,0,0,1-1.747-3.823,7.677,7.677,0,0,1,3.773-7.449,5.577,5.577,0,0,1,3.009-.873l12.017-28.98C319.761,18.046,318.623,16.645,317.284,15.4Z" style="fill: rgb(82, 153, 240);"></path><path class="b" d="M113.036,83.679c-4.636-.737-16.095-2.368-24.39-3.757l-3.415.332a15.925,15.925,0,0,1-3.447,2.578A16.317,16.317,0,0,1,65.4,82.186l-2.733.267a21.4,21.4,0,0,0-7.679,4.02,18.28,18.28,0,0,0-2.952,3.3,23.214,23.214,0,0,0-2.6,5.508,16.378,16.378,0,0,0,2.179,14.583,9.8,9.8,0,0,0,4.762,3.667c-2,7.1-4.559,15.776-6.04,24.207a2.9,2.9,0,0,0,2.031,3.272c6.316,1.83,12.618,1.465,19.96.878,2.76-.221,9.51-1,14.179-2.841,1.51-1.408-.3-18.6-1.465-25.526,0,0-.1-.569-.191-1.139l.216-.923c.341-1.459,1.6-7.14,2.087-8.556a30.689,30.689,0,0,0,1.319-5.023s3.331-2.892,4.716-2.954c6.855-.306,11.656-.48,19.5-1.069a1.413,1.413,0,0,0,1.275-1.315c.1-2.428.255-5.5.324-7.35A1.475,1.475,0,0,0,113.036,83.679ZM71.423,103.73a10.565,10.565,0,0,1-2.807,4.84,2.766,2.766,0,0,1-1.109.576,1.262,1.262,0,0,1-1.144-.4l-4.317-4.021a10.044,10.044,0,0,1,.7-3.574,6,6,0,0,1,2.283-2.791,4.858,4.858,0,0,1,5.882.827,3.715,3.715,0,0,1,.788,2.007A5.758,5.758,0,0,1,71.423,103.73Z" style="fill: rgb(82, 153, 240);"></path><path class="c" d="M272.892,93.473q-23.433-13.527-46.863-27.056L212.7,58.723a2.022,2.022,0,0,0-2.019,0q-24.354,14.069-48.714,28.126-24.269,14.013-48.538,28.025L86.023,130.7c-2.228,1.287-.216,4.745,2.019,3.454q24.386-14.085,48.773-28.165l48.513-28.009q13.688-7.9,27.374-15.806h-2.019Q234.116,75.7,257.546,89.233l13.327,7.694c2.234,1.289,4.25-2.166,2.019-3.454Z"></path><path class="c" d="M302.993,115.477q32.493,18.751,64.98,37.51v-3.454q-52.5,30.3-104.994,60.613-40.106,23.156-80.208,46.313-12.255,7.075-24.508,14.154h2.019q-61.088-35.479-122.36-70.646L2.992,179.8v3.454Q29.8,167.776,56.612,152.3c2.229-1.287.217-4.745-2.019-3.454Q27.785,164.326.973,179.8a2.019,2.019,0,0,0,0,3.454q61.289,35.375,122.57,70.76,17.361,10.022,34.72,20.05a2.022,2.022,0,0,0,2.019,0q27.48-15.875,54.965-31.742,47.178-27.24,94.358-54.477l60.387-34.861a2.019,2.019,0,0,0,0-3.454q-32.486-18.762-64.98-37.51c-2.234-1.289-4.25,2.166-2.019,3.454Z"></path><path class="c" d="M129.085,111.082l58.231,33.62,16.065,9.275v-3.454L176.61,165.979h2.019l-58.025-33.5-16.271-9.393c-2.233-1.29-4.25,2.165-2.019,3.453l58.005,33.489,16.291,9.406a2.022,2.022,0,0,0,2.019,0L205.4,153.977a2.019,2.019,0,0,0,0-3.454L147.168,116.9,131.1,107.628c-2.233-1.289-4.25,2.166-2.019,3.454Z"></path><path class="c" d="M285.673,141.911q19.893,11.47,39.773,22.963l10.963,6.333c2.233,1.29,4.25-2.165,2.019-3.453q-20.365-11.766-40.733-23.526l-10-5.771c-2.234-1.288-4.251,2.167-2.019,3.454Z"></path><path class="c" d="M227.436,143.189,250.809,129.7c2.229-1.287.217-4.744-2.019-3.454l-23.373,13.495c-2.228,1.286-.216,4.744,2.019,3.453Z"></path><path class="c" d="M147.277,98.746l23.87,13.782,33.513,19.348,37,21.365,34.4,19.858,25.3,14.606,2.2,1.27c2.233,1.289,4.25-2.166,2.019-3.454l-23.871-13.782-33.512-19.348-37-21.365-34.4-19.858L151.5,96.562l-2.2-1.27c-2.234-1.289-4.25,2.166-2.019,3.454Z"></path><path class="c" d="M255.877,160.271q15.908-9.18,31.815-18.36c2.228-1.286.216-4.744-2.019-3.454l-31.815,18.361c-2.229,1.286-.217,4.744,2.019,3.453Z"></path><path class="c" d="M249.1,82.761l-48.171,27.812-11.958,6.9c-2.229,1.287-.217,4.745,2.019,3.454l48.171-27.812,11.958-6.9c2.229-1.287.217-4.744-2.019-3.454Z"></path><path class="c" d="M318.1,170.294l-7.617,4.4-4.165,2.405a2.674,2.674,0,0,1-2.875.176c-.781-.431-1.547-.893-2.319-1.339-.4-.232-1.265-.985-1.737-1-.022,0-.076-.079-.094-.073v.647q-.255.9.084.58c.015,0,.028-.023.042-.024.1-.008.26-.15.345-.2l1.55-.895,9.474-5.469c1.085-.627,2.01-1.08,3.246-.391.866.482,1.719.992,2.577,1.487.394.227.792.448,1.181.682a1.415,1.415,0,0,0,.271.157c.547.162.5-1.447.037-1.139-2.129,1.424-.129,4.89,2.019,3.453,1.963-1.313,2.5-3.83.474-5.409a18.951,18.951,0,0,0-2.22-1.346c-2.3-1.33-4.383-2.741-7.21-2.072a15.758,15.758,0,0,0-3.908,2l-5.974,3.449c-1.287.743-2.608,1.447-3.869,2.234-1.445.9-2.4,2.592-1.532,4.251a5.652,5.652,0,0,0,2.484,2.108c1.967,1.135,4,2.7,6.364,2.692,1.918,0,3.353-.954,4.932-1.866l10.459-6.039C322.343,172.461,320.331,169,318.1,170.294Z"></path><path class="c" d="M298.834,172.939l-5.145-2.97c-.779-.45-1.562-.9-2.338-1.35-.9-.529-1.871-1.382-1.933-2.126a1.847,1.847,0,0,1,.587-1.346A5.964,5.964,0,0,1,292,163.811a12.678,12.678,0,0,1,5.576-.917,11.276,11.276,0,0,1,5.088,1.325c.558.312,1.108.639,1.661.959l5.959,3.44c2.233,1.289,4.25-2.166,2.019-3.454l-5.881-3.395c-.741-.428-1.472-.888-2.237-1.272a16.088,16.088,0,0,0-6.927-1.612c-4.185-.077-9.893,1.323-11.522,5.716a5.659,5.659,0,0,0,1.443,5.839,12.75,12.75,0,0,0,2.98,2.109l6.658,3.844c2.234,1.289,4.25-2.166,2.019-3.454Z"></path><path class="c" d="M210.946,71.62l20.278,11.707,2.026,1.17a2.937,2.937,0,0,0,.558.322c.335.093-.026.292-.108-.2V83.555c.079-.477.448-.3.112-.2a2.456,2.456,0,0,0-.452.261l-1.929,1.114-4.479,2.586c-.746.431-1.795,1.355-2.73,1.094a6.17,6.17,0,0,1-1.3-.711l-16.736-9.663-3.7-2.137c-.36-.207-.715-.438-1.086-.627-.529-.268-.153-.269-.095.084v1.063c-.055.333-.455.364.083.091.376-.191.737-.425,1.1-.636l3.378-1.951,3.053-1.762c.6-.349,1.284-.9,2.025-.538,2.309,1.113,4.34-2.335,2.019-3.454a6.035,6.035,0,0,0-6,.5l-4.6,2.659c-1.111.642-2.267,1.238-3.346,1.932-2.185,1.407-2.02,4,.121,5.329,5.422,3.366,11.081,6.4,16.608,9.589,2.061,1.19,4.1,2.456,6.2,3.578,3.449,1.841,6.533-.7,9.424-2.369,1.422-.821,2.859-1.62,4.267-2.464a4.326,4.326,0,0,0,1.559-1.344,2.978,2.978,0,0,0-1.2-4.114c-1.721-1.109-3.567-2.059-5.338-3.082L212.965,68.166C210.732,66.876,208.715,70.332,210.946,71.62Z"></path><path class="c" d="M165.4,140.993l11.486,6.631,6.555,3.785c.3.175.9.7,1.262.728.418.036.416-1.36-.008-1.318-.079.008-.183.119-.257.149a11.312,11.312,0,0,0-1.417.818l-3.774,2.178a7.882,7.882,0,0,1-2.253,1.179c-1.356.239-3.045-1.222-4.12-1.842L158.4,144.942c-.312-.18-1.452-1.108-1.821-1.052-.261.041-.079-1.708-.079.624,0,1.348-.163.592.2.555.379-.039.993-.573,1.318-.761l4.316-2.491c.917-.53,1.957-1.381,3.074-.824,2.3,1.145,4.326-2.305,2.019-3.454a6.252,6.252,0,0,0-6.01.187c-1.288.722-2.557,1.477-3.835,2.215-1.019.587-2.07,1.14-3.064,1.768a3.158,3.158,0,0,0-.02,5.6c4.431,2.852,9.179,5.3,13.742,7.934,1.823,1.053,3.623,2.177,5.482,3.165a6.144,6.144,0,0,0,5.772.041c.979-.511,1.922-1.11,2.878-1.662,2.271-1.311,8.185-3.635,5.456-7.143a6.469,6.469,0,0,0-2.038-1.5l-3-1.735-15.359-8.867C165.185,136.249,163.168,139.705,165.4,140.993Z"></path><path class="c" d="M130.736,120.98l9.365,5.407,2.441,1.409c.213.123,1.007.769,1.26.728.024,0,.167-1.347-.028-1.372-.155-.019-.6.346-.732.423l-2.808,1.622-2.877,1.66a3.842,3.842,0,0,1-1.506.683c-1.172.112-2.548-1.085-3.488-1.628l-6.017-3.474-2.656-1.533a11.773,11.773,0,0,0-1.655-.955c-.054-.02-.107-.086-.164-.1-.488-.08.062,1.4-.035,1.408a2.11,2.11,0,0,0,.546-.316l2.954-1.7,3.182-1.837c.689-.4,1.394-.835,2.218-.424,2.3,1.145,4.326-2.3,2.019-3.454a6.013,6.013,0,0,0-5.588.038c-.79.421-1.555.9-2.33,1.346l-3.455,1.994a12.691,12.691,0,0,0-2.26,1.417c-1.695,1.547-1.051,3.857.719,4.981.477.3.982.567,1.47.849l6.594,3.807c1.639.946,3.258,1.949,4.926,2.844a5.936,5.936,0,0,0,4.853.39,16.02,16.02,0,0,0,2.324-1.245c1.923-1.111,3.906-2.156,5.785-3.341,1.8-1.134,2.463-3.419.758-5a8.781,8.781,0,0,0-1.625-1.05l-12.171-7.027C130.522,116.237,128.505,119.692,130.736,120.98Z"></path><path class="c" d="M365.168,149.2c4.5-2.647,8.9-6.948,8.813-12.555-.087-5.506-4.374-9.585-8.813-12.2a2.017,2.017,0,0,0-2.019,0L344.7,135.094c-2.229,1.287-.217,4.745,2.019,3.454L365.168,127.9h-2.019c3.146,1.851,6.773,4.734,6.832,8.743.06,4.144-3.577,7.184-6.832,9.1-2.216,1.305-.206,4.764,2.019,3.453Z"></path><path class="c" d="M183.852,78.787l39.057,22.55c2.233,1.289,4.25-2.166,2.019-3.454l-39.057-22.55c-2.233-1.289-4.25,2.166-2.019,3.454Z"></path><path class="c" d="M269.254,125.462c.58,3.282,3.949,4.942,7.009,4.975a24.722,24.722,0,0,0,9.091-2.038,2.062,2.062,0,0,0,1.4-2.461,2.014,2.014,0,0,0-2.46-1.4,25.507,25.507,0,0,1-6.993,1.852,8.415,8.415,0,0,1-1.782,0,5.377,5.377,0,0,1-.636-.148c-.127-.037-.253-.079-.377-.125q.254.115-.07-.037a2.325,2.325,0,0,1-1-.756c.205.241-.191-.319-.226-.406.092.227-.084-.441-.1-.523a2.018,2.018,0,0,0-2.46-1.4,2.045,2.045,0,0,0-1.4,2.461Z"></path><path class="c" d="M300.946,121.119c1.247,1.723,1.406,4.2-.415,5.618a18.394,18.394,0,0,1-3.539,1.9,20.484,20.484,0,0,1-3.805,1.4c-1.781.438-4.522.77-5.6-.875a3.3,3.3,0,0,1-.28-2.324,5.688,5.688,0,0,1,1.863-2.659,2.017,2.017,0,0,0,0-2.828,2.042,2.042,0,0,0-2.829,0,8.252,8.252,0,0,0-3.064,7.068,6.542,6.542,0,0,0,5.064,5.724c2.822.72,6.012-.087,8.639-1.157,2.55-1.039,5.638-2.217,7.364-4.472a8,8,0,0,0,.059-9.408,2.059,2.059,0,0,0-2.737-.718,2.016,2.016,0,0,0-.717,2.736Z"></path><path class="c" d="M290.033,118.5c-.1-7.933-.106-15.866-.13-23.8-.008-2.573-4.008-2.578-4,0,.024,7.934.034,15.867.13,23.8.031,2.572,4.031,2.579,4,0Z"></path><path class="c" d="M277.871,119.3a26.05,26.05,0,0,0,9.493-.06,2,2,0,0,0,1.2-.92,2.043,2.043,0,0,0,.2-1.541,2.02,2.02,0,0,0-.919-1.2,2.333,2.333,0,0,0-1.541-.2l-.3.045q-.341.048.075-.009a1.924,1.924,0,0,1-.459.059q-.539.065-1.079.114c-.69.063-1.383.106-2.076.121-.668.015-1.338,0-2-.045-.143-.011-.286-.023-.429-.037s-.719-.17-.163-.014c-.3-.084-.625-.106-.929-.174a2,2,0,0,0-1.063,3.858Z"></path><path class="c" d="M276.563,88.79c0-1.688-.124-3.385-.177-5.073q-.066-2.158-.113-4.317a2,2,0,1,0-4,0q.043,2.158.113,4.317c.053,1.688.177,3.385.177,5.073a2,2,0,1,0,4,0Z"></path><path class="c" d="M288.578,121.052a16.39,16.39,0,0,0,7.152,1.767,25.366,25.366,0,0,0,6.859-.6,6.758,6.758,0,0,0,2.6-1.126c.907-.749.792-1.8.8-2.858q.024-2.412.028-4.823.03-11.788-.2-23.576c-.082-3.808-.18-7.618-.4-11.421-.147-2.559-4.148-2.576-4,0,.635,11.02.613,22.1.607,33.132,0,2.659-.012,5.317-.045,7.975l.991-1.727c-1.624,1-3.667.937-5.52,1.009a13.467,13.467,0,0,1-6.847-1.2c-2.285-1.176-4.311,2.274-2.019,3.454Z"></path><path class="c" d="M306.973,44.03a4.109,4.109,0,0,0,.419,1.419c.135.359.265.72.387,1.083a13.312,13.312,0,0,1,.548,2.341l-.072-.532a11.791,11.791,0,0,1,.118,1.559,2,2,0,0,0,4,0,16.846,16.846,0,0,0-1.472-6.392l.072.532v-.01a2,2,0,0,0-4,0Z"></path><path class="c" d="M277.316,32.164a37.584,37.584,0,0,0-9.706,7.72,36.293,36.293,0,0,0-6.275,11.333c-1.323,3.85-2.251,8.578-.407,12.411,1.676,3.486,6.107,6.776,10.089,5.726,2.487-.656,1.432-4.516-1.063-3.857-1.389.366-2.815-.7-3.8-1.587A6.189,6.189,0,0,1,264,60.177c-.513-3.271.691-6.967,1.979-9.928a29.888,29.888,0,0,1,5.392-8.58,36.956,36.956,0,0,1,7.968-6.051c2.2-1.329.193-4.789-2.019-3.454Z"></path><path class="c" d="M303.123,63.86V73.912c0,.248-.007.5,0,.746,0,.088-.015.343,0,.177s-.035.153-.035.154a3.037,3.037,0,0,1-.126.4c.141-.311-.245.337-.152.217.1-.136-.115.118-.111.113-.381.411.1-.03-.153.15a1.259,1.259,0,0,1-.576.282c-.327.083-.661.145-.993.211q-1.056.213-2.119.393c-1.5.255-3.011.449-4.527.595a2.055,2.055,0,0,0-2,2,2.014,2.014,0,0,0,2,2q2.4-.231,4.779-.6a27.449,27.449,0,0,0,4.129-.8,5.653,5.653,0,0,0,3.882-5.362c.046-2.593,0-5.19,0-7.783V63.86c0-2.574-4-2.578-4,0Z"></path><path class="c" d="M269.343,69.25c.195,3.2,0,6.418.24,9.62a2.061,2.061,0,0,0,2,2c2.295.183,4.59.374,6.89.51a2.012,2.012,0,0,0,2-2,2.047,2.047,0,0,0-2-2c-2.3-.136-4.6-.327-6.89-.51l2,2c-.24-3.2-.045-6.416-.24-9.62a2,2,0,0,0-4,0Z"></path><path class="c" d="M296.443,32.063a14.171,14.171,0,0,1-14.949.682,15.262,15.262,0,0,1-7.205-12.3,15.916,15.916,0,0,1,4.9-12.811,14.857,14.857,0,0,1,12.977-3.34A13.811,13.811,0,0,1,303.314,15.6a2.016,2.016,0,0,0,2.46,1.4,2.048,2.048,0,0,0,1.4-2.461c-2.144-12.892-18.336-18.6-28.757-11.364-10.275,7.135-10.965,23.686-1.087,31.524a18.081,18.081,0,0,0,21.135.819c2.119-1.436.12-4.9-2.019-3.454Z"></path><path class="c" d="M282.687,21.9a2.5,2.5,0,0,1-1.019,1.881,1.941,1.941,0,0,1-1.43.271,2.179,2.179,0,0,1-1.574-1.186,2.55,2.55,0,0,1,.63-2.933,2.018,2.018,0,0,1,2.744.151A2.247,2.247,0,0,1,282.687,21.9Z"></path><path class="c" d="M292.291,23.86a2.5,2.5,0,0,1-1.019,1.881,1.948,1.948,0,0,1-1.431.271,2.181,2.181,0,0,1-1.574-1.186,2.55,2.55,0,0,1,.631-2.934,2.018,2.018,0,0,1,2.743.151A2.251,2.251,0,0,1,292.291,23.86Z"></path><path class="c" d="M291.871,14.883a20.487,20.487,0,0,0,1,2.17A11.255,11.255,0,0,0,294.1,18.8a8.671,8.671,0,0,0,2.926,2.188,2.153,2.153,0,0,0,1.541.2,2.046,2.046,0,0,0,1.2-.919,2.018,2.018,0,0,0,.2-1.541,1.966,1.966,0,0,0-.919-1.2,8.33,8.33,0,0,1-1.512-.906l.405.313a6.934,6.934,0,0,1-1.22-1.231l.313.4a11.852,11.852,0,0,1-1.412-2.551l.2.478c-.032-.075-.063-.15-.094-.225a2.2,2.2,0,0,0-.919-1.2,2,2,0,0,0-2.736.717,1.929,1.929,0,0,0-.2,1.541Z"></path><path class="c" d="M292.79,12.473a13.535,13.535,0,0,1-3.449,1.039,12.377,12.377,0,0,1-1.706.2,4.429,4.429,0,0,1-1.32-.069l1.195,2.938c.709-1.267,1.365-2.951.19-4.183-1.3-1.366-2.976-.555-4.476-.141a29.515,29.515,0,0,1-9.572.915c-2.572-.143-2.564,3.858,0,4a34.561,34.561,0,0,0,6.511-.234c1.036-.139,2.064-.314,3.081-.555q.7-.167,1.391-.367c.29-.084.578-.174.865-.267.116-.037.232-.075.346-.115q.447-.133-.21,0l-.882-.514.117.107-.514-.883c-.286-.7.139-.561,0-.351-.115.176-.2.385-.3.569a2.022,2.022,0,0,0,1.195,2.938,11.988,11.988,0,0,0,4.882-.079,15.624,15.624,0,0,0,4.676-1.49c2.278-1.2.259-4.655-2.019-3.454Z"></path><path class="c" d="M264.707,128.41l-.016-5.792,6.2,2.6c-1.735,1.753-3.458,3.473-5.074,4.941a.66.66,0,0,1-1.1-.463Z"></path><path class="c" d="M271.1,123.152l-5.5-2.3a2,2,0,0,0-1.541.2,2,2,0,0,0-.717,2.737l.312.4a2,2,0,0,0,.883.515l5.5,2.305a2.007,2.007,0,0,0,1.542-.2,2,2,0,0,0,.717-2.736l-.313-.405a1.992,1.992,0,0,0-.882-.515Z"></path><path class="c" d="M308.971,49.232c.6-1.456,1.305-2.9,1.819-4.392.027-.079.074-.153.1-.233,0-.012.011-.023.014-.035l.036-.266c.047-.352.047-.355,0-.007.234.037-.192.414.03.1a5.025,5.025,0,0,0,.4-.962l4-9.647,4.509-10.869c.351-.847.723-1.687,1.054-2.542,1.1-2.829-.875-5.437-3.06-7.061a15.3,15.3,0,0,0-8.979-3.023,5.593,5.593,0,0,0-4.48,2,9.923,9.923,0,0,0-1.108,2.263q-1.657,3.978-3.312,7.959-2.974,7.148-5.95,14.294L285.78,56.649l-.2.469a2.013,2.013,0,0,0,1.4,2.461,2.052,2.052,0,0,0,2.46-1.4L296.5,41.233q2.618-6.282,5.232-12.566l4.428-10.64q.5-1.206,1-2.41c.283-.679.241-.932.853-1.191,1.117-.473,2.761.02,3.844.359a12.03,12.03,0,0,1,3.778,1.833c.793.618,1.853,1.524,1.479,2.592-.222.635-.52,1.253-.777,1.875l-4.067,9.8-4.249,10.244c-.309.746-.713,1.506-.946,2.28-.038.128-.029.193-.072.353-.192.726.205-.311,0-.167-.07.049-.116.291-.152.368-.384.829-.7,1.7-1.052,2.541l-.689,1.662a2.013,2.013,0,0,0,1.4,2.461,2.051,2.051,0,0,0,2.46-1.4Z"></path><path class="c" d="M280.824,68.558,276.1,79.915l-3.218,7.738a4.979,4.979,0,0,0-.248.595c-.391,1.471.285-.281-.068.174a2.661,2.661,0,0,0-.248.593l-1.753,4.191q-2.613,6.252-5.208,12.512c-.774,1.86-1.625,3.7-2.327,5.593a8.735,8.735,0,0,0-.364,3.169l.015,4.507q.011,3.3.019,6.6l.009,3.071a6.385,6.385,0,0,0,.135,1.82,2.7,2.7,0,0,0,3.278,1.744c1.286-.378,2.369-1.814,3.3-2.724,1.067-1.042,2.122-2.1,3.175-3.153,1.148-1.15,2.278-2.318,3.433-3.461,1.043-1.031,2.249-1.981,3.187-3.108,1.34-1.61,2.03-4.049,2.832-5.965q5.217-12.459,10.438-24.917,5.49-13.1,10.91-26.224l.534-1.287a2.012,2.012,0,0,0-1.4-2.461,2.051,2.051,0,0,0-2.46,1.4c-3.239,7.813-6.465,15.632-9.734,23.433q-5.292,12.629-10.583,25.258-1.507,3.6-3.015,7.2c.328-.785.1-.169-.026.062a5.22,5.22,0,0,1-1.182,1.543q-1.881,1.772-3.7,3.606c-1.219,1.229-2.434,2.461-3.659,3.684q-.937.938-1.888,1.862c-.2.2-.4.39-.6.583-.182.175-.907.855-.866.85h1.063l.044.017.717.718c.252.348.05.74.069.047.008-.292,0-.585,0-.877q0-.925-.005-1.85l-.009-3.282q-.007-3.075-.02-6.149c0-1.648-.27-3.461.362-5.007.866-2.121,1.76-4.231,2.64-6.346q2.373-5.7,4.746-11.4l1.686-4.031a8.154,8.154,0,0,0,.379-.907c.373-1.339-.317.551.163-.4,1.172-2.33,2.029-4.878,3.03-7.287l5-12.022a2.013,2.013,0,0,0-1.4-2.461,2.052,2.052,0,0,0-2.46,1.4Z"></path><path class="c" d="M265.853,113.551l12.456,5.218a2,2,0,0,0,2.46-1.4,2.064,2.064,0,0,0-1.4-2.46l-12.456-5.218a2,2,0,0,0-2.46,1.4,2.062,2.062,0,0,0,1.4,2.46Z"></path><path class="c" d="M309.732,63.7c3.041-1.967,4.407-5.48,4.506-9,.084-3.038-1.258-6.02-4.146-7.294-3.516-1.55-7.306-.188-9.672,2.716a9.5,9.5,0,0,0-1.324,10c1.895,3.972,6.737,5.9,10.636,3.577,2.21-1.315.2-4.774-2.019-3.454a2.86,2.86,0,0,1-2.906.245c.323.125-.055-.037-.132-.078-.142-.075-.282-.156-.417-.242-.109-.07-.218-.142-.321-.219.242.18-.017-.02-.052-.055-.238-.23-.471-.452-.688-.7-.033-.038-.213-.3-.05-.064-.113-.164-.222-.328-.322-.5a3.483,3.483,0,0,1-.521-1.353c-.028-.126-.056-.258-.073-.387.047.367.01-.08,0-.17a9,9,0,0,1,.01-1.1c.01-.128.02-.258.038-.386-.053.378.017-.03.037-.122a7.2,7.2,0,0,1,.217-.806c.038-.115.08-.23.124-.344-.135.347.012-.021.058-.1.161-.3.332-.578.51-.866.032-.051.224-.3.018-.041.077-.1.159-.194.241-.287a8.662,8.662,0,0,1,.673-.682,5.134,5.134,0,0,1,1.346-.946c.329-.169-.391.1.217-.091.135-.043.269-.086.406-.121-.048.013.617-.128.341-.083s.357-.028.324-.027c.242-.012.481,0,.722.01-.429-.015-.128-.026.007.009.19.049.379.1.566.159.083.027.48.186.155.043.112.049.222.1.329.162s.206.115.305.177c0,0,.447.322.212.136s.168.161.169.162c.076.074.145.156.221.228.251.238.032.028-.018-.043.089.125.174.251.252.383.065.109.12.223.18.334s.144.431.009.007c.069.216.144.427.2.649.034.135.136.83.078.287.027.251.049.5.056.755.008.276,0,.552-.013.827-.009.141-.117.995-.026.417a13.461,13.461,0,0,1-.452,2.015,5.308,5.308,0,0,1-2.034,2.818A2.044,2.044,0,0,0,307,62.983,2.022,2.022,0,0,0,309.732,63.7Z"></path><path class="c" d="M281.972,58.7c.232-.069.465-.133.7-.184.092-.02.184-.038.276-.055l.136-.023c.18-.027.181-.028,0,0l-.132.018c.088-.009.177-.017.266-.024s.174-.011.262-.014c.212-.007.426-.005.638.007.1.006.209.026.311.025.28,0-.519-.1-.107-.013.176.037.352.068.526.114s.339.1.5.154a1.334,1.334,0,0,0,.217.082c-.462-.058-.228-.1-.008.008.306.153.572.353.865.524.223.131-.379-.342-.1-.074.053.05.114.095.168.144.151.134.3.276.432.424.081.088.285.255.32.375-.059-.2-.237-.335-.116-.141.048.077.1.15.152.226.088.138.172.279.249.424.043.08.081.162.124.243.205.385-.087-.266-.026-.079.107.331.229.65.3.991.017.077.123.376.078.432.03-.037-.043-.533-.029-.149,0,.11.015.22.018.331,0,.166,0,.333-.008.5,0,.093-.022.187-.023.279,0,.267.114-.529.019-.141s-.177.739-.3,1.108c-.062.184-.143.11.068-.151a1.4,1.4,0,0,0-.1.217c-.088.182-.186.36-.292.533s-.219.308-.314.469c-.14.236.326-.37.034-.05-.089.1-.172.2-.263.3q-.186.2-.386.384c-.085.078-.686.551-.253.235a5.866,5.866,0,0,1-.528.355c-.095.054-.191.1-.289.151l-.12.057c-.2.088-.164.073.1-.043-.081.119-.522.182-.669.223-.259.073-.519.124-.781.177l-.073.012c-.225.035-.194.03.093-.012a1.239,1.239,0,0,1-.443.033,6.675,6.675,0,0,1-.735,0c-.033,0-.514-.047-.169-.008.325.036-.164-.036-.229-.051-.115-.026-.23-.055-.343-.089l-.134-.043q-.309-.114.088.051c-.2-.019-.43-.23-.6-.33-.349-.206.143.218.028.018a2.958,2.958,0,0,0-.335-.348,2.011,2.011,0,0,0-2.828,0,2.05,2.05,0,0,0,0,2.829c1.783,2.061,4.9,2.309,7.386,1.66a8.736,8.736,0,0,0,5.4-4.272,8.285,8.285,0,0,0-2.88-10.865,8.836,8.836,0,0,0-7.22-.8,2,2,0,1,0,1.064,3.857Z"></path><path class="c" d="M77.911,142.334l-2.434,20.942a2.012,2.012,0,0,0,2,2,2.048,2.048,0,0,0,2-2l2.434-20.942a2.012,2.012,0,0,0-2-2,2.047,2.047,0,0,0-2,2Z"></path><path class="c" d="M66.238,144.512l-1.725,20.552a2.017,2.017,0,0,0,2,2,2.04,2.04,0,0,0,2-2l1.725-20.552a2.016,2.016,0,0,0-2-2,2.041,2.041,0,0,0-2,2Z"></path><path class="c" d="M53.957,142.425l-1,23.347c-.11,2.573,3.89,2.568,4,0l1-23.347c.111-2.574-3.89-2.568-4,0Z"></path><path class="c" d="M78.144,163.492c1.135,1.026,2.289,2.034,3.364,3.123.276.28.548.565.806.862.047.054.182.264.247.294q-.287-.376-.106-.133c.039.055.077.111.114.167a3.678,3.678,0,0,1,.27.512c-.124-.291.113.4.131.471q.048.195.081.393-.045-.3-.013.062c.005.132,0,.264,0,.4.04-.206.037-.188-.01.051a3.312,3.312,0,0,1-.106.378c.079-.166.068-.149-.033.053a3.437,3.437,0,0,1-.194.311q.19-.244-.036.018c-.085.088-.174.173-.266.253q.249-.179-.037.021a5.972,5.972,0,0,1-.65.361c.359-.16-.325.089-.4.109-.056.014-.59.122-.323.081a8.363,8.363,0,0,1-1.824,0c-.253-.031-.3-.035-.153-.01q-.226-.031-.453-.069c-.3-.049-.6-.1-.9-.163q-.845-.165-1.678-.384a28.308,28.308,0,0,1-3.266-1.1,2.007,2.007,0,0,0-2.46,1.4,2.06,2.06,0,0,0,1.4,2.461,27.782,27.782,0,0,0,5.955,1.668c2.275.362,4.767.446,6.773-.89a5.811,5.811,0,0,0,2.538-6.061,8.148,8.148,0,0,0-2.516-4.274c-1.091-1.112-2.265-2.136-3.419-3.18a2,2,0,1,0-2.829,2.829Z"></path><path class="c" d="M68.007,169.4a5.069,5.069,0,0,1,1.65,2.206,4.15,4.15,0,0,1,.057,1.88,1.561,1.561,0,0,1-.579.823c.2-.178-.238.158-.291.19a4.041,4.041,0,0,1-.616.32,6.276,6.276,0,0,1-2.821.1,21.047,21.047,0,0,1-6.346-2.373,5.172,5.172,0,0,1-2.228-1.641,3.511,3.511,0,0,1-.52-2.627,2.052,2.052,0,0,0-1.4-2.46,2.017,2.017,0,0,0-2.46,1.4,7.632,7.632,0,0,0,2.189,7.238,13.586,13.586,0,0,0,3.184,1.94,38.4,38.4,0,0,0,3.56,1.573c2.345.877,5.334,1.514,7.793.744a6.193,6.193,0,0,0,4.464-4.633,7.933,7.933,0,0,0-2.81-7.5,2.054,2.054,0,0,0-2.829,0,2.018,2.018,0,0,0,0,2.829Z"></path><path class="c" d="M59.612,69.558a13.308,13.308,0,0,1,4.427-14.669,15.894,15.894,0,0,1,15.373-2.01C90.176,57.35,91.588,73.506,82.222,80.2a14.139,14.139,0,0,1-17.481-1.051c-1.882-1.754-4.717,1.069-2.829,2.829a18.281,18.281,0,0,0,19.912,3.068c6.7-3.075,10.547-10.314,10.652-17.5A19.022,19.022,0,0,0,63.67,50.369a17.354,17.354,0,0,0-7.915,20.252c.781,2.443,4.644,1.4,3.857-1.063Z"></path><path class="c" d="M59.376,68.413a6.46,6.46,0,0,0-4.96,2.818,6.348,6.348,0,0,0-.633,5.575C55.139,80.717,59.128,82.9,63.128,83a2,2,0,0,0,0-4,7.56,7.56,0,0,1-3.3-.893,8.773,8.773,0,0,1-.87-.555c.343.245-.036-.035-.108-.1q-.18-.16-.346-.335c-.112-.117-.216-.239-.32-.363.29.345-.013-.03-.07-.117q-.133-.2-.252-.416c-.027-.049-.288-.591-.18-.341s-.077-.23-.095-.286c-.048-.152-.089-.3-.124-.46-.018-.077-.034-.154-.047-.232.028.246.034.294.018.142s-.023-.31-.023-.467c0-.061.016-.585,0-.276s.044-.185.062-.256.175-.536.069-.253.094-.17.127-.227.294-.474.132-.228.131-.143.178-.192c.1-.107.218-.2.325-.3s.074-.066-.113.085c.06-.044.121-.085.184-.124.124-.08.262-.14.385-.22.133-.065.086-.048-.142.049.068-.028.137-.053.207-.076a3.947,3.947,0,0,1,.425-.12c.524-.118-.294.01.124-.02a2,2,0,0,0,0-4Z"></path><path class="c" d="M79.925,69.9a2.524,2.524,0,0,0,1.03,1.9,1.965,1.965,0,0,0,1.447.274,2.2,2.2,0,0,0,1.592-1.2,2.578,2.578,0,0,0-.638-2.967,2.039,2.039,0,0,0-2.774.153A2.274,2.274,0,0,0,79.925,69.9Z"></path><path class="c" d="M70.212,71.885a2.528,2.528,0,0,0,1.03,1.9,1.967,1.967,0,0,0,1.448.274,2.2,2.2,0,0,0,1.591-1.2,2.579,2.579,0,0,0-.637-2.967,2.042,2.042,0,0,0-2.775.152A2.276,2.276,0,0,0,70.212,71.885Z"></path><path class="c" d="M82.328,58.411a11.96,11.96,0,0,1-3.017,2.069,12.535,12.535,0,0,1-1.66.748,8.584,8.584,0,0,1-.859.261c-.129.032-.259.06-.39.083.23-.027.233-.032.011-.015l1.928,2.532c.3-1.427.481-3.238-.974-4.117-1.749-1.057-3.279.471-4.669,1.34a29.857,29.857,0,0,1-8.652,3.579c-2.5.626-1.438,4.485,1.064,3.857a36.477,36.477,0,0,0,6.284-2.2,28.788,28.788,0,0,0,2.649-1.378q.679-.4,1.338-.837.332-.221.657-.448L76.3,63.7q.553-.35-.076-.063l-1.009-.274q-.654-1.7-.64-.933c-.011.137,0,.143.02.017-.051.186-.07.387-.11.575a2.023,2.023,0,0,0,1.929,2.532,12.016,12.016,0,0,0,4.676-1.5,15.836,15.836,0,0,0,4.068-2.819c1.818-1.826-1.009-4.656-2.829-2.828Z"></path><path class="c" d="M83.112,114.056c.769,4.629,1.271,9.314,1.639,13.991.182,2.308.333,4.625.329,6.941,0,.8-.029,1.592-.1,2.386-.043.49.079-.338-.008.066-.026.123-.057.25-.076.375-.057.381-.106.134-.024.15.08-.178.09-.207.029-.085q-.163.254.19-.245l.882-.514c-6.309,2.433-13.394,2.927-20.091,3.189a42.45,42.45,0,0,1-11.542-.846c-.568-.136-1.555-.193-1.913-.73-.335-.5-.01-1.326.09-1.854.411-2.179.884-4.346,1.4-6.5,1.09-4.6,2.364-9.143,3.649-13.686.7-2.482-3.157-3.541-3.857-1.064-1.07,3.784-2.133,7.57-3.088,11.385-.5,2-.971,4-1.4,6.014-.379,1.79-1.072,3.858-.887,5.7.408,4.062,4.758,4.716,8.044,5.182a57.029,57.029,0,0,0,11.3.317c6.333-.361,13.047-.841,19.026-3.114,2.011-.764,2.221-2.511,2.336-4.437a53.22,53.22,0,0,0-.134-6.5,171.07,171.07,0,0,0-1.934-17.178,2.015,2.015,0,0,0-2.46-1.4,2.047,2.047,0,0,0-1.4,2.46Z"></path><path class="c" d="M64.949,110.159a3.372,3.372,0,0,0,3.949.591,7.053,7.053,0,0,0,2.517-2.354,12.933,12.933,0,0,0,1.475-2.86,10.5,10.5,0,0,0,.845-3.454,5.754,5.754,0,0,0-3.307-5.666,6.835,6.835,0,0,0-7.374.936c-2.142,1.8-2.9,4.685-3.008,7.372a2.014,2.014,0,0,0,2,2,2.041,2.041,0,0,0,2-2c.008-.2.017-.407.033-.61.007-.087.057-.583.018-.279a8.59,8.59,0,0,1,.306-1.389c.059-.194.128-.385.2-.575-.107.287.048-.093.1-.186q.119-.234.257-.458c.045-.074.093-.148.142-.22.021-.033.237-.322.1-.151-.115.145.185-.2.24-.26.121-.125.258-.234.378-.358.152-.157-.03.019-.064.042.072-.049.143-.1.216-.147a3.643,3.643,0,0,1,.555-.3c-.347.145.2-.036.294-.059s.178-.037.266-.056c-.041.009-.31.013-.081.015.182,0,.364-.018.547-.012.091,0,.182.013.273.015-.2,0-.175-.035.012.007s.355.081.529.136c.108.034.493.218.216.073.163.085.327.164.484.26.074.045.145.1.219.143.23.134-.248-.072-.024-.011.039.01.3.282.088.069-.17-.174-.013-.018.02.037.075.125.149.249.222.375.175.308-.07-.292.016.067.045.187.091.372.129.562.044.222-.01-.025-.01-.06,0,.1.013.2.016.3,0,.2-.017.395-.016.592,0,.228,0,.01.012-.041-.016.1-.036.2-.057.292-.049.226-.112.448-.183.669-.121.373-.255.742-.4,1.108-.032.083-.066.165-.1.248.011-.03.126-.278.029-.07-.087.185-.169.372-.26.555a9.9,9.9,0,0,1-.608,1.052c-.048.072-.1.141-.149.214-.154.248.191-.209-.006.011-.138.154-.268.314-.412.463-.083.086-.172.167-.257.253-.268.271.068.012.072-.037,0,.031-.561.344-.289.194.2-.112.04-.007-.028,0,.086-.012.458-.011.185-.034,0,0,.437.08.207.024-.158-.039.246.1.294.148a2,2,0,0,0-2.829,2.828Z"></path><path class="c" d="M88.114,81.85c6.74,1.125,13.5,2.11,20.261,3.125,1.2.181,2.405.362,3.606.55.095.015.349.112.422.066-.046.029.189-.126.029-.088-.28.067.124-.528-.156-.157-.05.066-.015.386-.018.472-.036.877-.077,1.754-.118,2.63q-.061,1.352-.123,2.7c-.008.175.049.964.021,1.016.179-.339.2-.128-.081-.251a3.05,3.05,0,0,0-.942.068q-2.871.206-5.744.372c-4.026.231-8.055.4-12.083.575-2.563.115-2.578,4.115,0,4,4.095-.182,8.19-.35,12.281-.587,2.243-.13,4.489-.254,6.728-.446a3.954,3.954,0,0,0,2.936-1.248,4.9,4.9,0,0,0,.875-3.294c.087-1.993.29-4.013.268-6.008a3.625,3.625,0,0,0-3.341-3.7c-3.33-.519-6.666-1-10-1.505-4.59-.69-9.18-1.388-13.759-2.152a2.06,2.06,0,0,0-2.46,1.4,2.017,2.017,0,0,0,1.4,2.46Z"></path><path class="c" d="M86.543,97.352c-.4,2.546-1.361,4.949-1.976,7.444-.5,2.039-.952,4.09-1.43,6.134a2.043,2.043,0,0,0,1.4,2.461,2.023,2.023,0,0,0,2.46-1.4c.478-2.045.928-4.1,1.43-6.135.615-2.495,1.577-4.9,1.976-7.444a2.062,2.062,0,0,0-1.4-2.46,2.015,2.015,0,0,0-2.46,1.4Z"></path><path class="c" d="M78.559,112.59q-2.113.5-4.265.807l-.253.036c.223-.03.259-.035.11-.016-.2.023-.394.049-.592.072q-.507.059-1.016.106-1.1.1-2.207.154a2,2,0,1,0,0,4,51.568,51.568,0,0,0,9.286-1.3,2.019,2.019,0,0,0,1.4-2.461,2.044,2.044,0,0,0-2.46-1.4Z"></path><path class="c" d="M117.843,93.171A4.9,4.9,0,0,0,121,96.161a7.308,7.308,0,0,0,4.915.129c3.516-1.432,4.579-5.826,3.3-9.139l-1.929,2.532c.955.033,1.91.05,2.866.038a13.343,13.343,0,0,0,3.252-.215,3.955,3.955,0,0,0,2.063-6.046c-1.165-1.761-3.124-2.293-5.059-2.745-1.658-.387-3.335-.721-5.016-.994a7.69,7.69,0,0,0-6.531,1.554,2,2,0,0,0,2.829,2.828c.169-.151.17-.159,0-.022A3.352,3.352,0,0,1,122,83.9c.209-.1.22-.109.031-.024.119-.043.239-.083.36-.118.183-.053.369-.086.554-.132.24-.039.248-.044.023-.012.12-.014.24-.025.36-.032.373-.025.735.007,1.107.011-.608-.007-.088-.007.077.021l.42.073c1.774.312,3.55.655,5.295,1.106.353.091.706.186,1.053.3.057.018.506.214.257.086.014.007.512.332.264.133a3.159,3.159,0,0,1,.281.274q-.164-.233.028.06c.11.21.119.223.029.04q.07.315.04.106c-.014-.142-.016-.1-.006.117.04-.192.032-.172-.026.06a.5.5,0,0,1,.162-.293c-.166.154-.156.147.032-.022-.481.2.4-.147-.076.019-.226.046-.183.045.131-.005-.132.009-.265.014-.4.015-.548.019-1.1.031-1.645.04-1.025.016-2.048,0-3.072-.035a2.011,2.011,0,0,0-1.928,2.531,4.261,4.261,0,0,1,.289,2.753,2.483,2.483,0,0,1-.41.944,1.861,1.861,0,0,1-.832.7q-.193.1.031-.02-.321.08-.071.014a6.227,6.227,0,0,1-.723.011,3.22,3.22,0,0,1-1.1-.162c-.085-.023-.681-.263-.344-.1a4.91,4.91,0,0,1-.463-.262c.35.218-.009-.03-.092-.107q.221.315.041.042c-.1-.2-.094-.172.027.078a2.049,2.049,0,0,0-2.461-1.4,2.02,2.02,0,0,0-1.4,2.46Z"></path><path class="c" d="M62.133,80.524A21.041,21.041,0,0,0,46.774,97.983c-1.006,7.617,3.025,16.87,11.361,17.925a2.01,2.01,0,0,0,2-2,2.051,2.051,0,0,0-2-2c-6.012-.761-8.287-9.07-7.313-14.075A17.09,17.09,0,0,1,63.2,84.381c2.481-.673,1.428-4.533-1.064-3.857Z"></path><path class="c" d="M77.211,162.531c.622-.274.15-.066,0-.017s-.279.085-.42.12a8.2,8.2,0,0,0-.809.158q.492-.063.16-.023l-.255.026c-.176.016-.352.028-.528.038q-.519.027-1.039.025c-.735,0-1.47-.041-2.2-.1q-.564-.047-1.125-.11-.3-.035-.6-.072l-.3-.038c.286.039.316.042.091.011a2.2,2.2,0,0,0-1.541.2,2,2,0,0,0,.478,3.655c3.288.46,6.968.962,10.1-.419a2.007,2.007,0,0,0,.718-2.737,2.062,2.062,0,0,0-2.737-.717Z"></path><path class="c" d="M66.154,164.3c-.077.078-.17.148-.242.229-.137.155.279-.138.081-.066a4.863,4.863,0,0,0-.547.316c-.216.115-.055.013.075-.027-.12.037-.237.087-.357.125-.224.071-.452.131-.682.181q-.157.034-.318.063c-.056.01-.513.072-.226.039.259-.029-.11.008-.155.012-.144.014-.287.025-.431.033-.531.031-1.064.033-1.6.012-.508-.021-1.016-.061-1.521-.118-.181-.021-.377-.047-.084-.006q-.173-.024-.345-.051c-.253-.039-.506-.082-.757-.129a9.333,9.333,0,0,1-1.307-.341c-.139-.047-.275-.1-.413-.151.183.068.145.069-.012-.01-.1-.051-.207-.1-.307-.157-.075-.042-.509-.347-.116-.037a2.054,2.054,0,0,0-2.829,0,2.023,2.023,0,0,0,0,2.829c2.137,1.689,5.044,2.065,7.691,2.171,2.491.1,5.383-.227,7.227-2.089a2,2,0,0,0-2.829-2.828Z"></path></svg>